<?xml version="1.0" encoding="utf-8" standalone="no"?>
<!DOCTYPE svg PUBLIC "-//W3C//DTD SVG 1.1//EN"
  "http://www.w3.org/Graphics/SVG/1.1/DTD/svg11.dtd">
<svg xmlns:xlink="http://www.w3.org/1999/xlink" width="616.118438pt" height="396.273625pt" viewBox="0 0 616.118438 396.273625" xmlns="http://www.w3.org/2000/svg" version="1.1">
 <metadata>
  <rdf:RDF xmlns:dc="http://purl.org/dc/elements/1.1/" xmlns:cc="http://creativecommons.org/ns#" xmlns:rdf="http://www.w3.org/1999/02/22-rdf-syntax-ns#">
   <cc:Work>
    <dc:type rdf:resource="http://purl.org/dc/dcmitype/StillImage"/>
    <dc:date>2022-09-13T15:07:27.469124</dc:date>
    <dc:format>image/svg+xml</dc:format>
    <dc:creator>
     <cc:Agent>
      <dc:title>Matplotlib v3.5.3, https://matplotlib.org/</dc:title>
     </cc:Agent>
    </dc:creator>
   </cc:Work>
  </rdf:RDF>
 </metadata>
 <defs>
  <style type="text/css">*{stroke-linejoin: round; stroke-linecap: butt}</style>
 </defs>
 <g id="figure_1">
  <g id="patch_1">
   <path d="M 0 396.273625 
L 616.118438 396.273625 
L 616.118438 0 
L 0 0 
z
" style="fill: #ffffff"/>
  </g>
  <g id="axes_1">
   <g id="patch_2">
    <path d="M 50.918438 356.78175 
L 608.918437 356.78175 
L 608.918437 24.14175 
L 50.918438 24.14175 
z
" style="fill: #e5e5e5"/>
   </g>
   <g id="matplotlib.axis_1">
    <g id="xtick_1">
     <g id="line2d_1">
      <path d="M 70.54716 356.78175 
L 70.54716 24.14175 
" clip-path="url(#pf5a20e7974)" style="fill: none; stroke: #ffffff; stroke-width: 0.8; stroke-linecap: square"/>
     </g>
     <g id="line2d_2">
      <defs>
       <path id="m42a1970cc5" d="M 0 0 
L 0 3.5 
" style="stroke: #555555; stroke-width: 0.8"/>
      </defs>
      <g>
       <use xlink:href="#m42a1970cc5" x="70.54716" y="356.78175" style="fill: #555555; stroke: #555555; stroke-width: 0.8"/>
      </g>
     </g>
     <g id="text_1">
      <!-- 0 -->
      <g style="fill: #555555" transform="translate(67.36591 371.380187)scale(0.1 -0.1)">
       <defs>
        <path id="DejaVuSans-30" d="M 2034 4250 
Q 1547 4250 1301 3770 
Q 1056 3291 1056 2328 
Q 1056 1369 1301 889 
Q 1547 409 2034 409 
Q 2525 409 2770 889 
Q 3016 1369 3016 2328 
Q 3016 3291 2770 3770 
Q 2525 4250 2034 4250 
z
M 2034 4750 
Q 2819 4750 3233 4129 
Q 3647 3509 3647 2328 
Q 3647 1150 3233 529 
Q 2819 -91 2034 -91 
Q 1250 -91 836 529 
Q 422 1150 422 2328 
Q 422 3509 836 4129 
Q 1250 4750 2034 4750 
z
" transform="scale(0.015625)"/>
       </defs>
       <use xlink:href="#DejaVuSans-30"/>
      </g>
     </g>
    </g>
    <g id="xtick_2">
     <g id="line2d_3">
      <path d="M 169.202476 356.78175 
L 169.202476 24.14175 
" clip-path="url(#pf5a20e7974)" style="fill: none; stroke: #ffffff; stroke-width: 0.8; stroke-linecap: square"/>
     </g>
     <g id="line2d_4">
      <g>
       <use xlink:href="#m42a1970cc5" x="169.202476" y="356.78175" style="fill: #555555; stroke: #555555; stroke-width: 0.8"/>
      </g>
     </g>
     <g id="text_2">
      <!-- 2 -->
      <g style="fill: #555555" transform="translate(166.021226 371.380187)scale(0.1 -0.1)">
       <defs>
        <path id="DejaVuSans-32" d="M 1228 531 
L 3431 531 
L 3431 0 
L 469 0 
L 469 531 
Q 828 903 1448 1529 
Q 2069 2156 2228 2338 
Q 2531 2678 2651 2914 
Q 2772 3150 2772 3378 
Q 2772 3750 2511 3984 
Q 2250 4219 1831 4219 
Q 1534 4219 1204 4116 
Q 875 4013 500 3803 
L 500 4441 
Q 881 4594 1212 4672 
Q 1544 4750 1819 4750 
Q 2544 4750 2975 4387 
Q 3406 4025 3406 3419 
Q 3406 3131 3298 2873 
Q 3191 2616 2906 2266 
Q 2828 2175 2409 1742 
Q 1991 1309 1228 531 
z
" transform="scale(0.015625)"/>
       </defs>
       <use xlink:href="#DejaVuSans-32"/>
      </g>
     </g>
    </g>
    <g id="xtick_3">
     <g id="line2d_5">
      <path d="M 267.857792 356.78175 
L 267.857792 24.14175 
" clip-path="url(#pf5a20e7974)" style="fill: none; stroke: #ffffff; stroke-width: 0.8; stroke-linecap: square"/>
     </g>
     <g id="line2d_6">
      <g>
       <use xlink:href="#m42a1970cc5" x="267.857792" y="356.78175" style="fill: #555555; stroke: #555555; stroke-width: 0.8"/>
      </g>
     </g>
     <g id="text_3">
      <!-- 4 -->
      <g style="fill: #555555" transform="translate(264.676542 371.380187)scale(0.1 -0.1)">
       <defs>
        <path id="DejaVuSans-34" d="M 2419 4116 
L 825 1625 
L 2419 1625 
L 2419 4116 
z
M 2253 4666 
L 3047 4666 
L 3047 1625 
L 3713 1625 
L 3713 1100 
L 3047 1100 
L 3047 0 
L 2419 0 
L 2419 1100 
L 313 1100 
L 313 1709 
L 2253 4666 
z
" transform="scale(0.015625)"/>
       </defs>
       <use xlink:href="#DejaVuSans-34"/>
      </g>
     </g>
    </g>
    <g id="xtick_4">
     <g id="line2d_7">
      <path d="M 366.513107 356.78175 
L 366.513107 24.14175 
" clip-path="url(#pf5a20e7974)" style="fill: none; stroke: #ffffff; stroke-width: 0.8; stroke-linecap: square"/>
     </g>
     <g id="line2d_8">
      <g>
       <use xlink:href="#m42a1970cc5" x="366.513107" y="356.78175" style="fill: #555555; stroke: #555555; stroke-width: 0.8"/>
      </g>
     </g>
     <g id="text_4">
      <!-- 6 -->
      <g style="fill: #555555" transform="translate(363.331857 371.380187)scale(0.1 -0.1)">
       <defs>
        <path id="DejaVuSans-36" d="M 2113 2584 
Q 1688 2584 1439 2293 
Q 1191 2003 1191 1497 
Q 1191 994 1439 701 
Q 1688 409 2113 409 
Q 2538 409 2786 701 
Q 3034 994 3034 1497 
Q 3034 2003 2786 2293 
Q 2538 2584 2113 2584 
z
M 3366 4563 
L 3366 3988 
Q 3128 4100 2886 4159 
Q 2644 4219 2406 4219 
Q 1781 4219 1451 3797 
Q 1122 3375 1075 2522 
Q 1259 2794 1537 2939 
Q 1816 3084 2150 3084 
Q 2853 3084 3261 2657 
Q 3669 2231 3669 1497 
Q 3669 778 3244 343 
Q 2819 -91 2113 -91 
Q 1303 -91 875 529 
Q 447 1150 447 2328 
Q 447 3434 972 4092 
Q 1497 4750 2381 4750 
Q 2619 4750 2861 4703 
Q 3103 4656 3366 4563 
z
" transform="scale(0.015625)"/>
       </defs>
       <use xlink:href="#DejaVuSans-36"/>
      </g>
     </g>
    </g>
    <g id="xtick_5">
     <g id="line2d_9">
      <path d="M 465.168423 356.78175 
L 465.168423 24.14175 
" clip-path="url(#pf5a20e7974)" style="fill: none; stroke: #ffffff; stroke-width: 0.8; stroke-linecap: square"/>
     </g>
     <g id="line2d_10">
      <g>
       <use xlink:href="#m42a1970cc5" x="465.168423" y="356.78175" style="fill: #555555; stroke: #555555; stroke-width: 0.8"/>
      </g>
     </g>
     <g id="text_5">
      <!-- 8 -->
      <g style="fill: #555555" transform="translate(461.987173 371.380187)scale(0.1 -0.1)">
       <defs>
        <path id="DejaVuSans-38" d="M 2034 2216 
Q 1584 2216 1326 1975 
Q 1069 1734 1069 1313 
Q 1069 891 1326 650 
Q 1584 409 2034 409 
Q 2484 409 2743 651 
Q 3003 894 3003 1313 
Q 3003 1734 2745 1975 
Q 2488 2216 2034 2216 
z
M 1403 2484 
Q 997 2584 770 2862 
Q 544 3141 544 3541 
Q 544 4100 942 4425 
Q 1341 4750 2034 4750 
Q 2731 4750 3128 4425 
Q 3525 4100 3525 3541 
Q 3525 3141 3298 2862 
Q 3072 2584 2669 2484 
Q 3125 2378 3379 2068 
Q 3634 1759 3634 1313 
Q 3634 634 3220 271 
Q 2806 -91 2034 -91 
Q 1263 -91 848 271 
Q 434 634 434 1313 
Q 434 1759 690 2068 
Q 947 2378 1403 2484 
z
M 1172 3481 
Q 1172 3119 1398 2916 
Q 1625 2713 2034 2713 
Q 2441 2713 2670 2916 
Q 2900 3119 2900 3481 
Q 2900 3844 2670 4047 
Q 2441 4250 2034 4250 
Q 1625 4250 1398 4047 
Q 1172 3844 1172 3481 
z
" transform="scale(0.015625)"/>
       </defs>
       <use xlink:href="#DejaVuSans-38"/>
      </g>
     </g>
    </g>
    <g id="xtick_6">
     <g id="line2d_11">
      <path d="M 563.823738 356.78175 
L 563.823738 24.14175 
" clip-path="url(#pf5a20e7974)" style="fill: none; stroke: #ffffff; stroke-width: 0.8; stroke-linecap: square"/>
     </g>
     <g id="line2d_12">
      <g>
       <use xlink:href="#m42a1970cc5" x="563.823738" y="356.78175" style="fill: #555555; stroke: #555555; stroke-width: 0.8"/>
      </g>
     </g>
     <g id="text_6">
      <!-- 10 -->
      <g style="fill: #555555" transform="translate(557.461238 371.380187)scale(0.1 -0.1)">
       <defs>
        <path id="DejaVuSans-31" d="M 794 531 
L 1825 531 
L 1825 4091 
L 703 3866 
L 703 4441 
L 1819 4666 
L 2450 4666 
L 2450 531 
L 3481 531 
L 3481 0 
L 794 0 
L 794 531 
z
" transform="scale(0.015625)"/>
       </defs>
       <use xlink:href="#DejaVuSans-31"/>
       <use xlink:href="#DejaVuSans-30" x="63.623047"/>
      </g>
     </g>
    </g>
    <g id="text_7">
     <!-- Input Feature -->
     <g style="fill: #555555" transform="translate(289.8075 386.578)scale(0.12 -0.12)">
      <defs>
       <path id="DejaVuSans-49" d="M 628 4666 
L 1259 4666 
L 1259 0 
L 628 0 
L 628 4666 
z
" transform="scale(0.015625)"/>
       <path id="DejaVuSans-6e" d="M 3513 2113 
L 3513 0 
L 2938 0 
L 2938 2094 
Q 2938 2591 2744 2837 
Q 2550 3084 2163 3084 
Q 1697 3084 1428 2787 
Q 1159 2491 1159 1978 
L 1159 0 
L 581 0 
L 581 3500 
L 1159 3500 
L 1159 2956 
Q 1366 3272 1645 3428 
Q 1925 3584 2291 3584 
Q 2894 3584 3203 3211 
Q 3513 2838 3513 2113 
z
" transform="scale(0.015625)"/>
       <path id="DejaVuSans-70" d="M 1159 525 
L 1159 -1331 
L 581 -1331 
L 581 3500 
L 1159 3500 
L 1159 2969 
Q 1341 3281 1617 3432 
Q 1894 3584 2278 3584 
Q 2916 3584 3314 3078 
Q 3713 2572 3713 1747 
Q 3713 922 3314 415 
Q 2916 -91 2278 -91 
Q 1894 -91 1617 61 
Q 1341 213 1159 525 
z
M 3116 1747 
Q 3116 2381 2855 2742 
Q 2594 3103 2138 3103 
Q 1681 3103 1420 2742 
Q 1159 2381 1159 1747 
Q 1159 1113 1420 752 
Q 1681 391 2138 391 
Q 2594 391 2855 752 
Q 3116 1113 3116 1747 
z
" transform="scale(0.015625)"/>
       <path id="DejaVuSans-75" d="M 544 1381 
L 544 3500 
L 1119 3500 
L 1119 1403 
Q 1119 906 1312 657 
Q 1506 409 1894 409 
Q 2359 409 2629 706 
Q 2900 1003 2900 1516 
L 2900 3500 
L 3475 3500 
L 3475 0 
L 2900 0 
L 2900 538 
Q 2691 219 2414 64 
Q 2138 -91 1772 -91 
Q 1169 -91 856 284 
Q 544 659 544 1381 
z
M 1991 3584 
L 1991 3584 
z
" transform="scale(0.015625)"/>
       <path id="DejaVuSans-74" d="M 1172 4494 
L 1172 3500 
L 2356 3500 
L 2356 3053 
L 1172 3053 
L 1172 1153 
Q 1172 725 1289 603 
Q 1406 481 1766 481 
L 2356 481 
L 2356 0 
L 1766 0 
Q 1100 0 847 248 
Q 594 497 594 1153 
L 594 3053 
L 172 3053 
L 172 3500 
L 594 3500 
L 594 4494 
L 1172 4494 
z
" transform="scale(0.015625)"/>
       <path id="DejaVuSans-20" transform="scale(0.015625)"/>
       <path id="DejaVuSans-46" d="M 628 4666 
L 3309 4666 
L 3309 4134 
L 1259 4134 
L 1259 2759 
L 3109 2759 
L 3109 2228 
L 1259 2228 
L 1259 0 
L 628 0 
L 628 4666 
z
" transform="scale(0.015625)"/>
       <path id="DejaVuSans-65" d="M 3597 1894 
L 3597 1613 
L 953 1613 
Q 991 1019 1311 708 
Q 1631 397 2203 397 
Q 2534 397 2845 478 
Q 3156 559 3463 722 
L 3463 178 
Q 3153 47 2828 -22 
Q 2503 -91 2169 -91 
Q 1331 -91 842 396 
Q 353 884 353 1716 
Q 353 2575 817 3079 
Q 1281 3584 2069 3584 
Q 2775 3584 3186 3129 
Q 3597 2675 3597 1894 
z
M 3022 2063 
Q 3016 2534 2758 2815 
Q 2500 3097 2075 3097 
Q 1594 3097 1305 2825 
Q 1016 2553 972 2059 
L 3022 2063 
z
" transform="scale(0.015625)"/>
       <path id="DejaVuSans-61" d="M 2194 1759 
Q 1497 1759 1228 1600 
Q 959 1441 959 1056 
Q 959 750 1161 570 
Q 1363 391 1709 391 
Q 2188 391 2477 730 
Q 2766 1069 2766 1631 
L 2766 1759 
L 2194 1759 
z
M 3341 1997 
L 3341 0 
L 2766 0 
L 2766 531 
Q 2569 213 2275 61 
Q 1981 -91 1556 -91 
Q 1019 -91 701 211 
Q 384 513 384 1019 
Q 384 1609 779 1909 
Q 1175 2209 1959 2209 
L 2766 2209 
L 2766 2266 
Q 2766 2663 2505 2880 
Q 2244 3097 1772 3097 
Q 1472 3097 1187 3025 
Q 903 2953 641 2809 
L 641 3341 
Q 956 3463 1253 3523 
Q 1550 3584 1831 3584 
Q 2591 3584 2966 3190 
Q 3341 2797 3341 1997 
z
" transform="scale(0.015625)"/>
       <path id="DejaVuSans-72" d="M 2631 2963 
Q 2534 3019 2420 3045 
Q 2306 3072 2169 3072 
Q 1681 3072 1420 2755 
Q 1159 2438 1159 1844 
L 1159 0 
L 581 0 
L 581 3500 
L 1159 3500 
L 1159 2956 
Q 1341 3275 1631 3429 
Q 1922 3584 2338 3584 
Q 2397 3584 2469 3576 
Q 2541 3569 2628 3553 
L 2631 2963 
z
" transform="scale(0.015625)"/>
      </defs>
      <use xlink:href="#DejaVuSans-49"/>
      <use xlink:href="#DejaVuSans-6e" x="29.492188"/>
      <use xlink:href="#DejaVuSans-70" x="92.871094"/>
      <use xlink:href="#DejaVuSans-75" x="156.347656"/>
      <use xlink:href="#DejaVuSans-74" x="219.726562"/>
      <use xlink:href="#DejaVuSans-20" x="258.935547"/>
      <use xlink:href="#DejaVuSans-46" x="290.722656"/>
      <use xlink:href="#DejaVuSans-65" x="342.742188"/>
      <use xlink:href="#DejaVuSans-61" x="404.265625"/>
      <use xlink:href="#DejaVuSans-74" x="465.544922"/>
      <use xlink:href="#DejaVuSans-75" x="504.753906"/>
      <use xlink:href="#DejaVuSans-72" x="568.132812"/>
      <use xlink:href="#DejaVuSans-65" x="606.996094"/>
     </g>
    </g>
   </g>
   <g id="matplotlib.axis_2">
    <g id="ytick_1">
     <g id="line2d_13">
      <path d="M 50.918438 326.758839 
L 608.918437 326.758839 
" clip-path="url(#pf5a20e7974)" style="fill: none; stroke: #ffffff; stroke-width: 0.8; stroke-linecap: square"/>
     </g>
     <g id="line2d_14">
      <defs>
       <path id="m8922f1dd45" d="M 0 0 
L -3.5 0 
" style="stroke: #555555; stroke-width: 0.8"/>
      </defs>
      <g>
       <use xlink:href="#m8922f1dd45" x="50.918438" y="326.758839" style="fill: #555555; stroke: #555555; stroke-width: 0.8"/>
      </g>
     </g>
     <g id="text_8">
      <!-- −25 -->
      <g style="fill: #555555" transform="translate(22.81375 330.558058)scale(0.1 -0.1)">
       <defs>
        <path id="DejaVuSans-2212" d="M 678 2272 
L 4684 2272 
L 4684 1741 
L 678 1741 
L 678 2272 
z
" transform="scale(0.015625)"/>
        <path id="DejaVuSans-35" d="M 691 4666 
L 3169 4666 
L 3169 4134 
L 1269 4134 
L 1269 2991 
Q 1406 3038 1543 3061 
Q 1681 3084 1819 3084 
Q 2600 3084 3056 2656 
Q 3513 2228 3513 1497 
Q 3513 744 3044 326 
Q 2575 -91 1722 -91 
Q 1428 -91 1123 -41 
Q 819 9 494 109 
L 494 744 
Q 775 591 1075 516 
Q 1375 441 1709 441 
Q 2250 441 2565 725 
Q 2881 1009 2881 1497 
Q 2881 1984 2565 2268 
Q 2250 2553 1709 2553 
Q 1456 2553 1204 2497 
Q 953 2441 691 2322 
L 691 4666 
z
" transform="scale(0.015625)"/>
       </defs>
       <use xlink:href="#DejaVuSans-2212"/>
       <use xlink:href="#DejaVuSans-32" x="83.789062"/>
       <use xlink:href="#DejaVuSans-35" x="147.412109"/>
      </g>
     </g>
    </g>
    <g id="ytick_2">
     <g id="line2d_15">
      <path d="M 50.918438 286.349506 
L 608.918437 286.349506 
" clip-path="url(#pf5a20e7974)" style="fill: none; stroke: #ffffff; stroke-width: 0.8; stroke-linecap: square"/>
     </g>
     <g id="line2d_16">
      <g>
       <use xlink:href="#m8922f1dd45" x="50.918438" y="286.349506" style="fill: #555555; stroke: #555555; stroke-width: 0.8"/>
      </g>
     </g>
     <g id="text_9">
      <!-- −20 -->
      <g style="fill: #555555" transform="translate(22.81375 290.148724)scale(0.1 -0.1)">
       <use xlink:href="#DejaVuSans-2212"/>
       <use xlink:href="#DejaVuSans-32" x="83.789062"/>
       <use xlink:href="#DejaVuSans-30" x="147.412109"/>
      </g>
     </g>
    </g>
    <g id="ytick_3">
     <g id="line2d_17">
      <path d="M 50.918438 245.940172 
L 608.918437 245.940172 
" clip-path="url(#pf5a20e7974)" style="fill: none; stroke: #ffffff; stroke-width: 0.8; stroke-linecap: square"/>
     </g>
     <g id="line2d_18">
      <g>
       <use xlink:href="#m8922f1dd45" x="50.918438" y="245.940172" style="fill: #555555; stroke: #555555; stroke-width: 0.8"/>
      </g>
     </g>
     <g id="text_10">
      <!-- −15 -->
      <g style="fill: #555555" transform="translate(22.81375 249.739391)scale(0.1 -0.1)">
       <use xlink:href="#DejaVuSans-2212"/>
       <use xlink:href="#DejaVuSans-31" x="83.789062"/>
       <use xlink:href="#DejaVuSans-35" x="147.412109"/>
      </g>
     </g>
    </g>
    <g id="ytick_4">
     <g id="line2d_19">
      <path d="M 50.918438 205.530839 
L 608.918437 205.530839 
" clip-path="url(#pf5a20e7974)" style="fill: none; stroke: #ffffff; stroke-width: 0.8; stroke-linecap: square"/>
     </g>
     <g id="line2d_20">
      <g>
       <use xlink:href="#m8922f1dd45" x="50.918438" y="205.530839" style="fill: #555555; stroke: #555555; stroke-width: 0.8"/>
      </g>
     </g>
     <g id="text_11">
      <!-- −10 -->
      <g style="fill: #555555" transform="translate(22.81375 209.330058)scale(0.1 -0.1)">
       <use xlink:href="#DejaVuSans-2212"/>
       <use xlink:href="#DejaVuSans-31" x="83.789062"/>
       <use xlink:href="#DejaVuSans-30" x="147.412109"/>
      </g>
     </g>
    </g>
    <g id="ytick_5">
     <g id="line2d_21">
      <path d="M 50.918438 165.121506 
L 608.918437 165.121506 
" clip-path="url(#pf5a20e7974)" style="fill: none; stroke: #ffffff; stroke-width: 0.8; stroke-linecap: square"/>
     </g>
     <g id="line2d_22">
      <g>
       <use xlink:href="#m8922f1dd45" x="50.918438" y="165.121506" style="fill: #555555; stroke: #555555; stroke-width: 0.8"/>
      </g>
     </g>
     <g id="text_12">
      <!-- −5 -->
      <g style="fill: #555555" transform="translate(29.17625 168.920725)scale(0.1 -0.1)">
       <use xlink:href="#DejaVuSans-2212"/>
       <use xlink:href="#DejaVuSans-35" x="83.789062"/>
      </g>
     </g>
    </g>
    <g id="ytick_6">
     <g id="line2d_23">
      <path d="M 50.918438 124.712173 
L 608.918437 124.712173 
" clip-path="url(#pf5a20e7974)" style="fill: none; stroke: #ffffff; stroke-width: 0.8; stroke-linecap: square"/>
     </g>
     <g id="line2d_24">
      <g>
       <use xlink:href="#m8922f1dd45" x="50.918438" y="124.712173" style="fill: #555555; stroke: #555555; stroke-width: 0.8"/>
      </g>
     </g>
     <g id="text_13">
      <!-- 0 -->
      <g style="fill: #555555" transform="translate(37.555937 128.511392)scale(0.1 -0.1)">
       <use xlink:href="#DejaVuSans-30"/>
      </g>
     </g>
    </g>
    <g id="ytick_7">
     <g id="line2d_25">
      <path d="M 50.918438 84.30284 
L 608.918437 84.30284 
" clip-path="url(#pf5a20e7974)" style="fill: none; stroke: #ffffff; stroke-width: 0.8; stroke-linecap: square"/>
     </g>
     <g id="line2d_26">
      <g>
       <use xlink:href="#m8922f1dd45" x="50.918438" y="84.30284" style="fill: #555555; stroke: #555555; stroke-width: 0.8"/>
      </g>
     </g>
     <g id="text_14">
      <!-- 5 -->
      <g style="fill: #555555" transform="translate(37.555937 88.102059)scale(0.1 -0.1)">
       <use xlink:href="#DejaVuSans-35"/>
      </g>
     </g>
    </g>
    <g id="ytick_8">
     <g id="line2d_27">
      <path d="M 50.918438 43.893507 
L 608.918437 43.893507 
" clip-path="url(#pf5a20e7974)" style="fill: none; stroke: #ffffff; stroke-width: 0.8; stroke-linecap: square"/>
     </g>
     <g id="line2d_28">
      <g>
       <use xlink:href="#m8922f1dd45" x="50.918438" y="43.893507" style="fill: #555555; stroke: #555555; stroke-width: 0.8"/>
      </g>
     </g>
     <g id="text_15">
      <!-- 10 -->
      <g style="fill: #555555" transform="translate(31.193438 47.692725)scale(0.1 -0.1)">
       <use xlink:href="#DejaVuSans-31"/>
       <use xlink:href="#DejaVuSans-30" x="63.623047"/>
      </g>
     </g>
    </g>
    <g id="text_16">
     <!-- Target -->
     <g style="fill: #555555" transform="translate(16.318125 209.028)rotate(-90)scale(0.12 -0.12)">
      <defs>
       <path id="DejaVuSans-54" d="M -19 4666 
L 3928 4666 
L 3928 4134 
L 2272 4134 
L 2272 0 
L 1638 0 
L 1638 4134 
L -19 4134 
L -19 4666 
z
" transform="scale(0.015625)"/>
       <path id="DejaVuSans-67" d="M 2906 1791 
Q 2906 2416 2648 2759 
Q 2391 3103 1925 3103 
Q 1463 3103 1205 2759 
Q 947 2416 947 1791 
Q 947 1169 1205 825 
Q 1463 481 1925 481 
Q 2391 481 2648 825 
Q 2906 1169 2906 1791 
z
M 3481 434 
Q 3481 -459 3084 -895 
Q 2688 -1331 1869 -1331 
Q 1566 -1331 1297 -1286 
Q 1028 -1241 775 -1147 
L 775 -588 
Q 1028 -725 1275 -790 
Q 1522 -856 1778 -856 
Q 2344 -856 2625 -561 
Q 2906 -266 2906 331 
L 2906 616 
Q 2728 306 2450 153 
Q 2172 0 1784 0 
Q 1141 0 747 490 
Q 353 981 353 1791 
Q 353 2603 747 3093 
Q 1141 3584 1784 3584 
Q 2172 3584 2450 3431 
Q 2728 3278 2906 2969 
L 2906 3500 
L 3481 3500 
L 3481 434 
z
" transform="scale(0.015625)"/>
      </defs>
      <use xlink:href="#DejaVuSans-54"/>
      <use xlink:href="#DejaVuSans-61" x="44.583984"/>
      <use xlink:href="#DejaVuSans-72" x="105.863281"/>
      <use xlink:href="#DejaVuSans-67" x="145.226562"/>
      <use xlink:href="#DejaVuSans-65" x="208.703125"/>
      <use xlink:href="#DejaVuSans-74" x="270.226562"/>
     </g>
    </g>
   </g>
   <g id="PathCollection_1">
    <defs>
     <path id="md33571cc56" d="M 0 3 
C 0.795609 3 1.55874 2.683901 2.12132 2.12132 
C 2.683901 1.55874 3 0.795609 3 0 
C 3 -0.795609 2.683901 -1.55874 2.12132 -2.12132 
C 1.55874 -2.683901 0.795609 -3 0 -3 
C -0.795609 -3 -1.55874 -2.683901 -2.12132 -2.12132 
C -2.683901 -1.55874 -3 -0.795609 -3 0 
C -3 0.795609 -2.683901 1.55874 -2.12132 2.12132 
C -1.55874 2.683901 -0.795609 3 0 3 
z
" style="stroke: #ffffff; stroke-opacity: 0.75; stroke-width: 0.48"/>
    </defs>
    <g clip-path="url(#pf5a20e7974)">
     <use xlink:href="#md33571cc56" x="76.282074" y="111.531416" style="fill-opacity: 0.75; stroke: #ffffff; stroke-opacity: 0.75; stroke-width: 0.48"/>
     <use xlink:href="#md33571cc56" x="81.094231" y="125.882271" style="fill-opacity: 0.75; stroke: #ffffff; stroke-opacity: 0.75; stroke-width: 0.48"/>
     <use xlink:href="#md33571cc56" x="82.010371" y="135.497379" style="fill-opacity: 0.75; stroke: #ffffff; stroke-opacity: 0.75; stroke-width: 0.48"/>
     <use xlink:href="#md33571cc56" x="82.159155" y="112.292985" style="fill-opacity: 0.75; stroke: #ffffff; stroke-opacity: 0.75; stroke-width: 0.48"/>
     <use xlink:href="#md33571cc56" x="88.47147" y="127.379474" style="fill-opacity: 0.75; stroke: #ffffff; stroke-opacity: 0.75; stroke-width: 0.48"/>
     <use xlink:href="#md33571cc56" x="89.198666" y="109.540032" style="fill-opacity: 0.75; stroke: #ffffff; stroke-opacity: 0.75; stroke-width: 0.48"/>
     <use xlink:href="#md33571cc56" x="93.854966" y="119.911386" style="fill-opacity: 0.75; stroke: #ffffff; stroke-opacity: 0.75; stroke-width: 0.48"/>
     <use xlink:href="#md33571cc56" x="97.840688" y="110.897351" style="fill-opacity: 0.75; stroke: #ffffff; stroke-opacity: 0.75; stroke-width: 0.48"/>
     <use xlink:href="#md33571cc56" x="98.294916" y="117.591316" style="fill-opacity: 0.75; stroke: #ffffff; stroke-opacity: 0.75; stroke-width: 0.48"/>
     <use xlink:href="#md33571cc56" x="105.42369" y="112.588721" style="fill-opacity: 0.75; stroke: #ffffff; stroke-opacity: 0.75; stroke-width: 0.48"/>
     <use xlink:href="#md33571cc56" x="107.248596" y="119.876285" style="fill-opacity: 0.75; stroke: #ffffff; stroke-opacity: 0.75; stroke-width: 0.48"/>
     <use xlink:href="#md33571cc56" x="123.933004" y="97.803145" style="fill-opacity: 0.75; stroke: #ffffff; stroke-opacity: 0.75; stroke-width: 0.48"/>
     <use xlink:href="#md33571cc56" x="134.667123" y="114.449267" style="fill-opacity: 0.75; stroke: #ffffff; stroke-opacity: 0.75; stroke-width: 0.48"/>
     <use xlink:href="#md33571cc56" x="150.485142" y="110.050706" style="fill-opacity: 0.75; stroke: #ffffff; stroke-opacity: 0.75; stroke-width: 0.48"/>
     <use xlink:href="#md33571cc56" x="153.11187" y="93.765486" style="fill-opacity: 0.75; stroke: #ffffff; stroke-opacity: 0.75; stroke-width: 0.48"/>
     <use xlink:href="#md33571cc56" x="154.927037" y="128.94979" style="fill-opacity: 0.75; stroke: #ffffff; stroke-opacity: 0.75; stroke-width: 0.48"/>
     <use xlink:href="#md33571cc56" x="158.847007" y="128.019724" style="fill-opacity: 0.75; stroke: #ffffff; stroke-opacity: 0.75; stroke-width: 0.48"/>
     <use xlink:href="#md33571cc56" x="169.617537" y="103.761384" style="fill-opacity: 0.75; stroke: #ffffff; stroke-opacity: 0.75; stroke-width: 0.48"/>
     <use xlink:href="#md33571cc56" x="173.284321" y="127.343414" style="fill-opacity: 0.75; stroke: #ffffff; stroke-opacity: 0.75; stroke-width: 0.48"/>
     <use xlink:href="#md33571cc56" x="178.806977" y="93.789042" style="fill-opacity: 0.75; stroke: #ffffff; stroke-opacity: 0.75; stroke-width: 0.48"/>
     <use xlink:href="#md33571cc56" x="179.977239" y="119.624952" style="fill-opacity: 0.75; stroke: #ffffff; stroke-opacity: 0.75; stroke-width: 0.48"/>
     <use xlink:href="#md33571cc56" x="181.912393" y="123.477551" style="fill-opacity: 0.75; stroke: #ffffff; stroke-opacity: 0.75; stroke-width: 0.48"/>
     <use xlink:href="#md33571cc56" x="199.16233" y="97.087083" style="fill-opacity: 0.75; stroke: #ffffff; stroke-opacity: 0.75; stroke-width: 0.48"/>
     <use xlink:href="#md33571cc56" x="201.169747" y="102.32859" style="fill-opacity: 0.75; stroke: #ffffff; stroke-opacity: 0.75; stroke-width: 0.48"/>
     <use xlink:href="#md33571cc56" x="210.476306" y="100.250313" style="fill-opacity: 0.75; stroke: #ffffff; stroke-opacity: 0.75; stroke-width: 0.48"/>
     <use xlink:href="#md33571cc56" x="211.037575" y="110.881046" style="fill-opacity: 0.75; stroke: #ffffff; stroke-opacity: 0.75; stroke-width: 0.48"/>
     <use xlink:href="#md33571cc56" x="219.698609" y="132.455473" style="fill-opacity: 0.75; stroke: #ffffff; stroke-opacity: 0.75; stroke-width: 0.48"/>
     <use xlink:href="#md33571cc56" x="222.243461" y="102.933211" style="fill-opacity: 0.75; stroke: #ffffff; stroke-opacity: 0.75; stroke-width: 0.48"/>
     <use xlink:href="#md33571cc56" x="227.497754" y="128.215663" style="fill-opacity: 0.75; stroke: #ffffff; stroke-opacity: 0.75; stroke-width: 0.48"/>
     <use xlink:href="#md33571cc56" x="229.472717" y="117.11974" style="fill-opacity: 0.75; stroke: #ffffff; stroke-opacity: 0.75; stroke-width: 0.48"/>
     <use xlink:href="#md33571cc56" x="233.013785" y="116.598423" style="fill-opacity: 0.75; stroke: #ffffff; stroke-opacity: 0.75; stroke-width: 0.48"/>
     <use xlink:href="#md33571cc56" x="234.60583" y="129.104499" style="fill-opacity: 0.75; stroke: #ffffff; stroke-opacity: 0.75; stroke-width: 0.48"/>
     <use xlink:href="#md33571cc56" x="234.923335" y="120.809241" style="fill-opacity: 0.75; stroke: #ffffff; stroke-opacity: 0.75; stroke-width: 0.48"/>
     <use xlink:href="#md33571cc56" x="240.071724" y="119.008011" style="fill-opacity: 0.75; stroke: #ffffff; stroke-opacity: 0.75; stroke-width: 0.48"/>
     <use xlink:href="#md33571cc56" x="241.660698" y="125.444709" style="fill-opacity: 0.75; stroke: #ffffff; stroke-opacity: 0.75; stroke-width: 0.48"/>
     <use xlink:href="#md33571cc56" x="245.2193" y="142.622087" style="fill-opacity: 0.75; stroke: #ffffff; stroke-opacity: 0.75; stroke-width: 0.48"/>
     <use xlink:href="#md33571cc56" x="248.165687" y="128.255568" style="fill-opacity: 0.75; stroke: #ffffff; stroke-opacity: 0.75; stroke-width: 0.48"/>
     <use xlink:href="#md33571cc56" x="259.158614" y="120.202879" style="fill-opacity: 0.75; stroke: #ffffff; stroke-opacity: 0.75; stroke-width: 0.48"/>
     <use xlink:href="#md33571cc56" x="259.504647" y="142.347561" style="fill-opacity: 0.75; stroke: #ffffff; stroke-opacity: 0.75; stroke-width: 0.48"/>
     <use xlink:href="#md33571cc56" x="261.891255" y="137.047712" style="fill-opacity: 0.75; stroke: #ffffff; stroke-opacity: 0.75; stroke-width: 0.48"/>
     <use xlink:href="#md33571cc56" x="265.46761" y="141.095454" style="fill-opacity: 0.75; stroke: #ffffff; stroke-opacity: 0.75; stroke-width: 0.48"/>
     <use xlink:href="#md33571cc56" x="266.494683" y="116.430604" style="fill-opacity: 0.75; stroke: #ffffff; stroke-opacity: 0.75; stroke-width: 0.48"/>
     <use xlink:href="#md33571cc56" x="271.78332" y="130.540052" style="fill-opacity: 0.75; stroke: #ffffff; stroke-opacity: 0.75; stroke-width: 0.48"/>
     <use xlink:href="#md33571cc56" x="274.510645" y="134.035268" style="fill-opacity: 0.75; stroke: #ffffff; stroke-opacity: 0.75; stroke-width: 0.48"/>
     <use xlink:href="#md33571cc56" x="279.61882" y="147.916737" style="fill-opacity: 0.75; stroke: #ffffff; stroke-opacity: 0.75; stroke-width: 0.48"/>
     <use xlink:href="#md33571cc56" x="279.722822" y="133.652728" style="fill-opacity: 0.75; stroke: #ffffff; stroke-opacity: 0.75; stroke-width: 0.48"/>
     <use xlink:href="#md33571cc56" x="281.545276" y="147.22845" style="fill-opacity: 0.75; stroke: #ffffff; stroke-opacity: 0.75; stroke-width: 0.48"/>
     <use xlink:href="#md33571cc56" x="282.559027" y="139.702075" style="fill-opacity: 0.75; stroke: #ffffff; stroke-opacity: 0.75; stroke-width: 0.48"/>
     <use xlink:href="#md33571cc56" x="283.428585" y="147.134958" style="fill-opacity: 0.75; stroke: #ffffff; stroke-opacity: 0.75; stroke-width: 0.48"/>
     <use xlink:href="#md33571cc56" x="283.620661" y="132.849447" style="fill-opacity: 0.75; stroke: #ffffff; stroke-opacity: 0.75; stroke-width: 0.48"/>
     <use xlink:href="#md33571cc56" x="284.332512" y="134.056005" style="fill-opacity: 0.75; stroke: #ffffff; stroke-opacity: 0.75; stroke-width: 0.48"/>
     <use xlink:href="#md33571cc56" x="293.106891" y="143.807653" style="fill-opacity: 0.75; stroke: #ffffff; stroke-opacity: 0.75; stroke-width: 0.48"/>
     <use xlink:href="#md33571cc56" x="295.045626" y="137.409372" style="fill-opacity: 0.75; stroke: #ffffff; stroke-opacity: 0.75; stroke-width: 0.48"/>
     <use xlink:href="#md33571cc56" x="302.932262" y="154.179682" style="fill-opacity: 0.75; stroke: #ffffff; stroke-opacity: 0.75; stroke-width: 0.48"/>
     <use xlink:href="#md33571cc56" x="305.717729" y="158.602231" style="fill-opacity: 0.75; stroke: #ffffff; stroke-opacity: 0.75; stroke-width: 0.48"/>
     <use xlink:href="#md33571cc56" x="306.408184" y="137.548332" style="fill-opacity: 0.75; stroke: #ffffff; stroke-opacity: 0.75; stroke-width: 0.48"/>
     <use xlink:href="#md33571cc56" x="332.649077" y="138.25771" style="fill-opacity: 0.75; stroke: #ffffff; stroke-opacity: 0.75; stroke-width: 0.48"/>
     <use xlink:href="#md33571cc56" x="333.803556" y="132.930159" style="fill-opacity: 0.75; stroke: #ffffff; stroke-opacity: 0.75; stroke-width: 0.48"/>
     <use xlink:href="#md33571cc56" x="336.186778" y="113.378386" style="fill-opacity: 0.75; stroke: #ffffff; stroke-opacity: 0.75; stroke-width: 0.48"/>
     <use xlink:href="#md33571cc56" x="338.815463" y="128.500815" style="fill-opacity: 0.75; stroke: #ffffff; stroke-opacity: 0.75; stroke-width: 0.48"/>
     <use xlink:href="#md33571cc56" x="347.471885" y="146.550827" style="fill-opacity: 0.75; stroke: #ffffff; stroke-opacity: 0.75; stroke-width: 0.48"/>
     <use xlink:href="#md33571cc56" x="347.972216" y="124.261876" style="fill-opacity: 0.75; stroke: #ffffff; stroke-opacity: 0.75; stroke-width: 0.48"/>
     <use xlink:href="#md33571cc56" x="348.246112" y="150.727774" style="fill-opacity: 0.75; stroke: #ffffff; stroke-opacity: 0.75; stroke-width: 0.48"/>
     <use xlink:href="#md33571cc56" x="354.844749" y="139.384423" style="fill-opacity: 0.75; stroke: #ffffff; stroke-opacity: 0.75; stroke-width: 0.48"/>
     <use xlink:href="#md33571cc56" x="359.280715" y="133.604359" style="fill-opacity: 0.75; stroke: #ffffff; stroke-opacity: 0.75; stroke-width: 0.48"/>
     <use xlink:href="#md33571cc56" x="359.477506" y="114.098124" style="fill-opacity: 0.75; stroke: #ffffff; stroke-opacity: 0.75; stroke-width: 0.48"/>
     <use xlink:href="#md33571cc56" x="374.681018" y="135.192377" style="fill-opacity: 0.75; stroke: #ffffff; stroke-opacity: 0.75; stroke-width: 0.48"/>
     <use xlink:href="#md33571cc56" x="381.940248" y="133.128833" style="fill-opacity: 0.75; stroke: #ffffff; stroke-opacity: 0.75; stroke-width: 0.48"/>
     <use xlink:href="#md33571cc56" x="384.413734" y="124.163129" style="fill-opacity: 0.75; stroke: #ffffff; stroke-opacity: 0.75; stroke-width: 0.48"/>
     <use xlink:href="#md33571cc56" x="386.486911" y="129.467285" style="fill-opacity: 0.75; stroke: #ffffff; stroke-opacity: 0.75; stroke-width: 0.48"/>
     <use xlink:href="#md33571cc56" x="406.681135" y="101.73423" style="fill-opacity: 0.75; stroke: #ffffff; stroke-opacity: 0.75; stroke-width: 0.48"/>
     <use xlink:href="#md33571cc56" x="406.970084" y="125.698019" style="fill-opacity: 0.75; stroke: #ffffff; stroke-opacity: 0.75; stroke-width: 0.48"/>
     <use xlink:href="#md33571cc56" x="408.230321" y="125.954061" style="fill-opacity: 0.75; stroke: #ffffff; stroke-opacity: 0.75; stroke-width: 0.48"/>
     <use xlink:href="#md33571cc56" x="417.744715" y="114.788971" style="fill-opacity: 0.75; stroke: #ffffff; stroke-opacity: 0.75; stroke-width: 0.48"/>
     <use xlink:href="#md33571cc56" x="421.066491" y="114.353888" style="fill-opacity: 0.75; stroke: #ffffff; stroke-opacity: 0.75; stroke-width: 0.48"/>
     <use xlink:href="#md33571cc56" x="424.321687" y="86.858446" style="fill-opacity: 0.75; stroke: #ffffff; stroke-opacity: 0.75; stroke-width: 0.48"/>
     <use xlink:href="#md33571cc56" x="430.635129" y="95.784381" style="fill-opacity: 0.75; stroke: #ffffff; stroke-opacity: 0.75; stroke-width: 0.48"/>
     <use xlink:href="#md33571cc56" x="432.913318" y="104.616944" style="fill-opacity: 0.75; stroke: #ffffff; stroke-opacity: 0.75; stroke-width: 0.48"/>
     <use xlink:href="#md33571cc56" x="433.324651" y="118.843236" style="fill-opacity: 0.75; stroke: #ffffff; stroke-opacity: 0.75; stroke-width: 0.48"/>
     <use xlink:href="#md33571cc56" x="438.880923" y="95.047648" style="fill-opacity: 0.75; stroke: #ffffff; stroke-opacity: 0.75; stroke-width: 0.48"/>
     <use xlink:href="#md33571cc56" x="441.119639" y="114.75282" style="fill-opacity: 0.75; stroke: #ffffff; stroke-opacity: 0.75; stroke-width: 0.48"/>
     <use xlink:href="#md33571cc56" x="443.254319" y="120.331897" style="fill-opacity: 0.75; stroke: #ffffff; stroke-opacity: 0.75; stroke-width: 0.48"/>
     <use xlink:href="#md33571cc56" x="453.782794" y="89.3043" style="fill-opacity: 0.75; stroke: #ffffff; stroke-opacity: 0.75; stroke-width: 0.48"/>
     <use xlink:href="#md33571cc56" x="460.046948" y="98.564224" style="fill-opacity: 0.75; stroke: #ffffff; stroke-opacity: 0.75; stroke-width: 0.48"/>
     <use xlink:href="#md33571cc56" x="460.789727" y="91.970572" style="fill-opacity: 0.75; stroke: #ffffff; stroke-opacity: 0.75; stroke-width: 0.48"/>
     <use xlink:href="#md33571cc56" x="466.854263" y="98.697846" style="fill-opacity: 0.75; stroke: #ffffff; stroke-opacity: 0.75; stroke-width: 0.48"/>
     <use xlink:href="#md33571cc56" x="473.45973" y="93.395941" style="fill-opacity: 0.75; stroke: #ffffff; stroke-opacity: 0.75; stroke-width: 0.48"/>
     <use xlink:href="#md33571cc56" x="484.253531" y="111.655694" style="fill-opacity: 0.75; stroke: #ffffff; stroke-opacity: 0.75; stroke-width: 0.48"/>
     <use xlink:href="#md33571cc56" x="485.407766" y="116.092823" style="fill-opacity: 0.75; stroke: #ffffff; stroke-opacity: 0.75; stroke-width: 0.48"/>
     <use xlink:href="#md33571cc56" x="493.110919" y="99.37538" style="fill-opacity: 0.75; stroke: #ffffff; stroke-opacity: 0.75; stroke-width: 0.48"/>
     <use xlink:href="#md33571cc56" x="495.661325" y="116.349159" style="fill-opacity: 0.75; stroke: #ffffff; stroke-opacity: 0.75; stroke-width: 0.48"/>
     <use xlink:href="#md33571cc56" x="498.81094" y="116.129991" style="fill-opacity: 0.75; stroke: #ffffff; stroke-opacity: 0.75; stroke-width: 0.48"/>
     <use xlink:href="#md33571cc56" x="500.227415" y="114.061248" style="fill-opacity: 0.75; stroke: #ffffff; stroke-opacity: 0.75; stroke-width: 0.48"/>
     <use xlink:href="#md33571cc56" x="504.53359" y="110.461632" style="fill-opacity: 0.75; stroke: #ffffff; stroke-opacity: 0.75; stroke-width: 0.48"/>
     <use xlink:href="#md33571cc56" x="505.258135" y="114.7898" style="fill-opacity: 0.75; stroke: #ffffff; stroke-opacity: 0.75; stroke-width: 0.48"/>
     <use xlink:href="#md33571cc56" x="505.481734" y="126.014607" style="fill-opacity: 0.75; stroke: #ffffff; stroke-opacity: 0.75; stroke-width: 0.48"/>
     <use xlink:href="#md33571cc56" x="509.378266" y="119.578879" style="fill-opacity: 0.75; stroke: #ffffff; stroke-opacity: 0.75; stroke-width: 0.48"/>
     <use xlink:href="#md33571cc56" x="513.487423" y="138.540869" style="fill-opacity: 0.75; stroke: #ffffff; stroke-opacity: 0.75; stroke-width: 0.48"/>
     <use xlink:href="#md33571cc56" x="515.925953" y="108.527934" style="fill-opacity: 0.75; stroke: #ffffff; stroke-opacity: 0.75; stroke-width: 0.48"/>
     <use xlink:href="#md33571cc56" x="516.420644" y="133.048925" style="fill-opacity: 0.75; stroke: #ffffff; stroke-opacity: 0.75; stroke-width: 0.48"/>
     <use xlink:href="#md33571cc56" x="517.485084" y="128.096602" style="fill-opacity: 0.75; stroke: #ffffff; stroke-opacity: 0.75; stroke-width: 0.48"/>
     <use xlink:href="#md33571cc56" x="520.844895" y="117.01862" style="fill-opacity: 0.75; stroke: #ffffff; stroke-opacity: 0.75; stroke-width: 0.48"/>
     <use xlink:href="#md33571cc56" x="528.783314" y="129.462492" style="fill-opacity: 0.75; stroke: #ffffff; stroke-opacity: 0.75; stroke-width: 0.48"/>
     <use xlink:href="#md33571cc56" x="532.181281" y="106.240255" style="fill-opacity: 0.75; stroke: #ffffff; stroke-opacity: 0.75; stroke-width: 0.48"/>
     <use xlink:href="#md33571cc56" x="534.115924" y="138.148246" style="fill-opacity: 0.75; stroke: #ffffff; stroke-opacity: 0.75; stroke-width: 0.48"/>
     <use xlink:href="#md33571cc56" x="544.493318" y="126.365835" style="fill-opacity: 0.75; stroke: #ffffff; stroke-opacity: 0.75; stroke-width: 0.48"/>
     <use xlink:href="#md33571cc56" x="553.850476" y="134.36032" style="fill-opacity: 0.75; stroke: #ffffff; stroke-opacity: 0.75; stroke-width: 0.48"/>
     <use xlink:href="#md33571cc56" x="553.905156" y="146.702863" style="fill-opacity: 0.75; stroke: #ffffff; stroke-opacity: 0.75; stroke-width: 0.48"/>
     <use xlink:href="#md33571cc56" x="554.55517" y="128.565058" style="fill-opacity: 0.75; stroke: #ffffff; stroke-opacity: 0.75; stroke-width: 0.48"/>
     <use xlink:href="#md33571cc56" x="561.50757" y="139.435296" style="fill-opacity: 0.75; stroke: #ffffff; stroke-opacity: 0.75; stroke-width: 0.48"/>
    </g>
   </g>
   <g id="PolyCollection_1">
    <defs>
     <path id="m51af44b478" d="M 76.282074 -283.458157 
L 76.282074 -260.45614 
L 81.094231 -263.015332 
L 82.010371 -263.477116 
L 82.159155 -263.551349 
L 88.47147 -266.506222 
L 89.198666 -266.822449 
L 93.854966 -268.73081 
L 97.840688 -270.206589 
L 98.294916 -270.365673 
L 105.42369 -272.623225 
L 107.248596 -273.130077 
L 123.933004 -276.487637 
L 134.667123 -277.50873 
L 150.485142 -277.563479 
L 153.11187 -277.419958 
L 154.927037 -277.297155 
L 158.847007 -276.968196 
L 169.617537 -275.645848 
L 173.284321 -275.067221 
L 178.806977 -274.085088 
L 179.977239 -273.860926 
L 181.912393 -273.478604 
L 199.16233 -269.518997 
L 201.169747 -269.004953 
L 210.476306 -266.51906 
L 211.037575 -266.364683 
L 219.698609 -263.939862 
L 222.243461 -263.217137 
L 227.497754 -261.720264 
L 229.472717 -261.158081 
L 233.013785 -260.153873 
L 234.60583 -259.704834 
L 234.923335 -259.615512 
L 240.071724 -258.180827 
L 241.660698 -257.744358 
L 245.2193 -256.78047 
L 248.165687 -255.998919 
L 259.158614 -253.253529 
L 259.504647 -253.172266 
L 261.891255 -252.621598 
L 265.46761 -251.830256 
L 266.494683 -251.610931 
L 271.78332 -250.541853 
L 274.510645 -250.032425 
L 279.61882 -249.16118 
L 279.722822 -249.144613 
L 281.545276 -248.862156 
L 282.559027 -248.711559 
L 283.428585 -248.58616 
L 283.620661 -248.558935 
L 284.332512 -248.459547 
L 293.106891 -247.437324 
L 295.045626 -247.264182 
L 302.932262 -246.767753 
L 305.717729 -246.6746 
L 306.408184 -246.658297 
L 332.649077 -248.098151 
L 333.803556 -248.254103 
L 336.186778 -248.600222 
L 338.815463 -249.019387 
L 347.471885 -250.668848 
L 347.972216 -250.776407 
L 348.246112 -250.835837 
L 354.844749 -252.381632 
L 359.280715 -253.537772 
L 359.477506 -253.591116 
L 374.681018 -258.172926 
L 381.940248 -260.619094 
L 384.413734 -261.47935 
L 386.486911 -262.208498 
L 406.681135 -269.435641 
L 406.970084 -269.537318 
L 408.230321 -269.979076 
L 417.744715 -273.192618 
L 421.066491 -274.246672 
L 424.321687 -275.235402 
L 430.635129 -277.005155 
L 432.913318 -277.588933 
L 433.324651 -277.690939 
L 438.880923 -278.958992 
L 441.119639 -279.40791 
L 443.254319 -279.800126 
L 453.782794 -281.16788 
L 460.046948 -281.483221 
L 460.789727 -281.493803 
L 466.854263 -281.356715 
L 473.45973 -280.736147 
L 484.253531 -278.619957 
L 485.407766 -278.312048 
L 493.110919 -275.863019 
L 495.661325 -274.906241 
L 498.81094 -273.630393 
L 500.227415 -273.024147 
L 504.53359 -271.066103 
L 505.258135 -270.720706 
L 505.481734 -270.613243 
L 509.378266 -268.678899 
L 513.487423 -266.529545 
L 515.925953 -265.212562 
L 516.420644 -264.942419 
L 517.485084 -264.358298 
L 520.844895 -262.495599 
L 528.783314 -258.08922 
L 532.181281 -256.262793 
L 534.115924 -255.255328 
L 544.493318 -250.516629 
L 553.850476 -247.75255 
L 553.905156 -247.741997 
L 554.55517 -247.622164 
L 561.50757 -247.044154 
L 563.823738 -247.168761 
L 566.016078 -247.451232 
L 568.208419 -247.90598 
L 570.400759 -248.546558 
L 572.593099 -249.388217 
L 574.78544 -250.448017 
L 576.97778 -251.74488 
L 579.17012 -253.299561 
L 581.362461 -255.134577 
L 583.554801 -257.274114 
L 583.554801 -300.565844 
L 583.554801 -300.565844 
L 581.362461 -295.442135 
L 579.17012 -290.920901 
L 576.97778 -286.965428 
L 574.78544 -283.540062 
L 572.593099 -280.610022 
L 570.400759 -278.141249 
L 568.208419 -276.100292 
L 566.016078 -274.454272 
L 563.823738 -273.170924 
L 561.50757 -272.174181 
L 554.55517 -271.048407 
L 553.905156 -271.064431 
L 553.850476 -271.066601 
L 544.493318 -272.992903 
L 534.115924 -277.515576 
L 532.181281 -278.510739 
L 528.783314 -280.321657 
L 520.844895 -284.694719 
L 517.485084 -286.538806 
L 516.420644 -287.116341 
L 515.925953 -287.383318 
L 513.487423 -288.683811 
L 509.378266 -290.802912 
L 505.481734 -292.707406 
L 505.258135 -292.813163 
L 504.53359 -293.153055 
L 500.227415 -295.079665 
L 498.81094 -295.676287 
L 495.661325 -296.932499 
L 493.110919 -297.875464 
L 485.407766 -300.295958 
L 484.253531 -300.601369 
L 473.45973 -302.714552 
L 466.854263 -303.347181 
L 460.789727 -303.500121 
L 460.046948 -303.491618 
L 453.782794 -303.193613 
L 443.254319 -301.848256 
L 441.119639 -301.458817 
L 438.880923 -301.012045 
L 433.324651 -299.745784 
L 432.913318 -299.643707 
L 430.635129 -299.059044 
L 424.321687 -297.282632 
L 421.066491 -296.288284 
L 417.744715 -295.227197 
L 408.230321 -291.988256 
L 406.970084 -291.54276 
L 406.681135 -291.440218 
L 386.486911 -284.155349 
L 384.413734 -283.421421 
L 381.940248 -282.555904 
L 374.681018 -280.097266 
L 359.477506 -275.503384 
L 359.280715 -275.44999 
L 354.844749 -274.293257 
L 348.246112 -272.747986 
L 347.972216 -272.688601 
L 347.471885 -272.581127 
L 338.815463 -270.933269 
L 336.186778 -270.514426 
L 333.803556 -270.168438 
L 332.649077 -270.01248 
L 306.408184 -268.553081 
L 305.717729 -268.568293 
L 302.932262 -268.656762 
L 295.045626 -269.137822 
L 293.106891 -269.30681 
L 284.332512 -270.309299 
L 283.620661 -270.407066 
L 283.428585 -270.433854 
L 282.559027 -270.55728 
L 281.545276 -270.705588 
L 279.722822 -270.983973 
L 279.61882 -271.00031 
L 274.510645 -271.86066 
L 271.78332 -272.364721 
L 266.494683 -273.424668 
L 265.46761 -273.642455 
L 261.891255 -274.42914 
L 259.504647 -274.977364 
L 259.158614 -275.05832 
L 248.165687 -277.801027 
L 245.2193 -278.584404 
L 241.660698 -279.552031 
L 240.071724 -279.990718 
L 234.923335 -281.434917 
L 234.60583 -281.52494 
L 233.013785 -281.977696 
L 229.472717 -282.991331 
L 227.497754 -283.55944 
L 222.243461 -285.074244 
L 219.698609 -285.80668 
L 211.037575 -288.268503 
L 210.476306 -288.425441 
L 201.169747 -290.95518 
L 199.16233 -291.478758 
L 181.912393 -295.511786 
L 179.977239 -295.900623 
L 178.806977 -296.128492 
L 173.284321 -297.12551 
L 169.617537 -297.711438 
L 158.847007 -299.042293 
L 154.927037 -299.369586 
L 153.11187 -299.490825 
L 150.485142 -299.631267 
L 134.667123 -299.545704 
L 123.933004 -298.510267 
L 107.248596 -295.214154 
L 105.42369 -294.725406 
L 98.294916 -292.57076 
L 97.840688 -292.420208 
L 93.854966 -291.031022 
L 89.198666 -289.25345 
L 88.47147 -288.960835 
L 82.159155 -286.251477 
L 82.010371 -286.183968 
L 81.094231 -285.764596 
L 76.282074 -283.458157 
z
" style="stroke: #000080; stroke-opacity: 0.3; stroke-width: 0.5"/>
    </defs>
    <g clip-path="url(#pf5a20e7974)">
     <use xlink:href="#m51af44b478" x="0" y="396.273625" style="fill: #000080; fill-opacity: 0.3; stroke: #000080; stroke-opacity: 0.3; stroke-width: 0.5"/>
    </g>
   </g>
   <g id="PolyCollection_2">
    <defs>
     <path id="md8c7996861" d="M 76.282074 -317.236634 
L 76.282074 -252.880246 
L 81.094231 -252.450715 
L 82.010371 -252.852838 
L 82.159155 -252.777229 
L 88.47147 -251.913189 
L 89.198666 -252.624264 
L 93.854966 -252.473043 
L 97.840688 -251.928907 
L 98.294916 -251.416926 
L 105.42369 -251.303886 
L 107.248596 -251.080872 
L 123.933004 -249.586102 
L 134.667123 -248.651968 
L 150.485142 -248.032331 
L 153.11187 -247.723204 
L 154.927037 -247.597762 
L 158.847007 -247.885133 
L 169.617537 -247.814692 
L 173.284321 -246.299759 
L 178.806977 -246.695068 
L 179.977239 -246.965377 
L 181.912393 -245.970753 
L 199.16233 -245.056056 
L 201.169747 -245.283329 
L 210.476306 -244.758751 
L 211.037575 -244.72054 
L 219.698609 -244.439592 
L 222.243461 -244.456822 
L 227.497754 -244.260291 
L 229.472717 -244.552434 
L 233.013785 -242.871582 
L 234.60583 -243.575234 
L 234.923335 -243.547062 
L 240.071724 -243.619231 
L 241.660698 -243.844778 
L 245.2193 -244.145332 
L 248.165687 -243.798308 
L 259.158614 -242.664258 
L 259.504647 -243.089599 
L 261.891255 -243.60506 
L 265.46761 -243.61027 
L 266.494683 -243.370536 
L 271.78332 -243.691248 
L 274.510645 -242.900271 
L 279.61882 -243.779693 
L 279.722822 -243.79459 
L 281.545276 -243.106346 
L 282.559027 -243.904019 
L 283.428585 -243.110899 
L 283.620661 -242.690523 
L 284.332512 -243.683427 
L 293.106891 -244.386476 
L 295.045626 -244.728318 
L 302.932262 -245.143071 
L 305.717729 -244.542663 
L 306.408184 -244.512189 
L 332.649077 -247.006426 
L 333.803556 -245.928664 
L 336.186778 -247.252771 
L 338.815463 -247.850531 
L 347.471885 -248.939408 
L 347.972216 -248.622924 
L 348.246112 -249.078385 
L 354.844749 -249.547934 
L 359.280715 -251.083437 
L 359.477506 -250.028581 
L 374.681018 -252.714751 
L 381.940248 -254.176175 
L 384.413734 -255.973036 
L 386.486911 -254.93768 
L 406.681135 -258.582201 
L 406.970084 -258.621808 
L 408.230321 -259.239426 
L 417.744715 -260.854119 
L 421.066491 -260.442187 
L 424.321687 -261.065851 
L 430.635129 -261.811475 
L 432.913318 -262.79519 
L 433.324651 -261.814838 
L 438.880923 -262.777869 
L 441.119639 -262.881183 
L 443.254319 -263.076812 
L 453.782794 -261.976746 
L 460.046948 -261.257205 
L 460.789727 -261.386087 
L 466.854263 -260.832273 
L 473.45973 -259.276823 
L 484.253531 -256.140242 
L 485.407766 -254.232052 
L 493.110919 -249.944496 
L 495.661325 -249.032274 
L 498.81094 -246.511786 
L 500.227415 -245.670365 
L 504.53359 -242.350874 
L 505.258135 -241.747435 
L 505.481734 -241.786765 
L 509.378266 -237.441499 
L 513.487423 -234.824377 
L 515.925953 -231.052638 
L 516.420644 -230.67303 
L 517.485084 -229.326534 
L 520.844895 -225.930512 
L 528.783314 -214.80144 
L 532.181281 -208.077588 
L 534.115924 -205.0533 
L 544.493318 -184.947298 
L 553.850476 -162.237968 
L 553.905156 -162.022729 
L 554.55517 -160.160237 
L 561.50757 -140.056496 
L 563.823738 -132.858688 
L 566.016078 -125.723217 
L 568.208419 -118.285484 
L 570.400759 -110.627053 
L 572.593099 -101.641346 
L 574.78544 -93.67816 
L 576.97778 -83.433816 
L 579.17012 -74.978614 
L 581.362461 -65.172144 
L 583.554801 -54.611875 
L 583.554801 -356.75359 
L 583.554801 -356.75359 
L 581.362461 -357.011875 
L 579.17012 -356.8529 
L 576.97778 -355.669013 
L 574.78544 -356.590727 
L 572.593099 -355.538124 
L 570.400759 -355.805548 
L 568.208419 -355.034129 
L 566.016078 -354.321641 
L 563.823738 -353.577967 
L 561.50757 -352.736896 
L 554.55517 -350.378521 
L 553.905156 -350.262955 
L 553.850476 -350.312714 
L 544.493318 -346.704109 
L 534.115924 -341.861928 
L 532.181281 -340.679875 
L 528.783314 -340.329868 
L 520.844895 -336.399949 
L 517.485084 -334.000846 
L 516.420644 -333.579148 
L 515.925953 -333.147858 
L 513.487423 -333.021273 
L 509.378266 -329.429983 
L 505.481734 -328.287487 
L 505.258135 -327.944627 
L 504.53359 -327.572823 
L 500.227415 -325.352491 
L 498.81094 -324.464988 
L 495.661325 -323.300749 
L 493.110919 -321.386019 
L 485.407766 -317.942842 
L 484.253531 -318.792667 
L 473.45973 -313.203577 
L 466.854263 -310.394654 
L 460.789727 -307.539349 
L 460.046948 -307.030303 
L 453.782794 -304.851796 
L 443.254319 -302.231062 
L 441.119639 -301.441492 
L 438.880923 -300.768874 
L 433.324651 -298.616166 
L 432.913318 -299.520449 
L 430.635129 -298.143743 
L 424.321687 -296.543862 
L 421.066491 -295.602682 
L 417.744715 -295.767929 
L 408.230321 -293.819982 
L 406.970084 -293.194309 
L 406.681135 -293.153913 
L 386.486911 -290.226792 
L 384.413734 -291.401554 
L 381.940248 -289.782439 
L 374.681018 -288.903699 
L 359.477506 -287.644855 
L 359.280715 -288.719453 
L 354.844749 -287.63491 
L 348.246112 -287.853183 
L 347.972216 -287.426616 
L 347.471885 -287.795941 
L 338.815463 -287.630908 
L 336.186778 -287.316236 
L 333.803556 -286.24938 
L 332.649077 -287.451909 
L 306.408184 -287.785339 
L 305.717729 -287.889404 
L 302.932262 -288.786043 
L 295.045626 -289.203948 
L 293.106891 -289.065328 
L 284.332512 -289.274331 
L 283.620661 -288.354854 
L 283.428585 -288.795028 
L 282.559027 -289.677697 
L 281.545276 -288.984258 
L 279.722822 -289.859444 
L 279.61882 -289.855198 
L 274.510645 -289.496612 
L 271.78332 -290.563822 
L 266.494683 -290.775099 
L 265.46761 -291.117588 
L 261.891255 -291.468775 
L 259.504647 -291.189939 
L 259.158614 -290.798826 
L 248.165687 -293.009895 
L 245.2193 -293.642246 
L 241.660698 -293.684473 
L 240.071724 -293.611346 
L 234.923335 -294.030381 
L 234.60583 -294.088716 
L 233.013785 -293.536078 
L 229.472717 -295.55149 
L 227.497754 -295.445155 
L 222.243461 -296.133348 
L 219.698609 -296.352884 
L 211.037575 -297.433238 
L 210.476306 -297.522923 
L 201.169747 -298.89544 
L 199.16233 -298.849737 
L 181.912393 -301.30688 
L 179.977239 -302.472687 
L 178.806977 -302.305731 
L 173.284321 -302.396497 
L 169.617537 -304.232705 
L 158.847007 -305.240639 
L 154.927037 -305.292354 
L 153.11187 -305.574456 
L 150.485142 -306.109906 
L 134.667123 -308.083864 
L 123.933004 -309.929998 
L 107.248596 -312.834157 
L 105.42369 -313.210881 
L 98.294916 -313.923779 
L 97.840688 -314.473955 
L 93.854966 -315.353136 
L 89.198666 -315.895594 
L 88.47147 -315.245608 
L 82.159155 -316.639878 
L 82.010371 -316.727985 
L 81.094231 -316.402819 
L 76.282074 -317.236634 
z
" style="stroke: #ff0000; stroke-opacity: 0.3; stroke-width: 0.5"/>
    </defs>
    <g clip-path="url(#pf5a20e7974)">
     <use xlink:href="#md8c7996861" x="0" y="396.273625" style="fill: #ff0000; fill-opacity: 0.3; stroke: #ff0000; stroke-opacity: 0.3; stroke-width: 0.5"/>
    </g>
   </g>
   <g id="line2d_29">
    <path d="M 76.282074 124.392514 
L 81.094231 123.919198 
L 82.010371 123.814911 
L 82.159155 123.797602 
L 88.47147 122.980604 
L 89.198666 122.877543 
L 93.854966 122.183775 
L 97.840688 121.552991 
L 98.294916 121.479458 
L 105.42369 120.297802 
L 107.248596 119.990846 
L 123.933004 117.287921 
L 134.667123 115.833944 
L 150.485142 114.436619 
L 153.11187 114.311639 
L 154.927037 114.245038 
L 158.847007 114.158072 
L 169.617537 114.338006 
L 173.284321 114.544028 
L 178.806977 114.99496 
L 179.977239 115.112154 
L 181.912393 115.322431 
L 199.16233 118.06738 
L 201.169747 118.481776 
L 210.476306 120.626352 
L 211.037575 120.766464 
L 219.698609 123.059053 
L 222.243461 123.773013 
L 227.497754 125.291607 
L 229.472717 125.874956 
L 233.013785 126.933435 
L 234.60583 127.413258 
L 234.923335 127.509167 
L 240.071724 129.069765 
L 241.660698 129.551707 
L 245.2193 130.627053 
L 248.165687 131.509502 
L 259.158614 134.674438 
L 259.504647 134.769465 
L 261.891255 135.415121 
L 265.46761 136.347702 
L 266.494683 136.607032 
L 271.78332 137.875138 
L 274.510645 138.480888 
L 279.61882 139.516553 
L 279.722822 139.536217 
L 281.545276 139.87113 
L 282.559027 140.049363 
L 283.428585 140.197546 
L 283.620661 140.229686 
L 284.332512 140.346911 
L 293.106891 141.535005 
L 295.045626 141.730011 
L 302.932262 142.253813 
L 305.717729 142.331836 
L 306.408184 142.342324 
L 332.649077 140.076205 
L 333.803556 139.858682 
L 336.186778 139.379735 
L 338.815463 138.805577 
L 347.471885 136.591462 
L 347.972216 136.449104 
L 348.246112 136.37054 
L 354.844749 134.348295 
L 359.280715 132.859808 
L 359.477506 132.791584 
L 374.681018 127.066715 
L 381.940248 124.111959 
L 384.413734 123.08896 
L 386.486911 122.228392 
L 406.681135 114.026414 
L 406.970084 113.915404 
L 408.230321 113.434581 
L 417.744715 110.012126 
L 421.066491 108.920095 
L 424.321687 107.910644 
L 430.635129 106.143055 
L 432.913318 105.572173 
L 433.324651 105.473098 
L 438.880923 104.260087 
L 441.119639 103.83995 
L 443.254319 103.477641 
L 453.782794 102.266323 
L 460.046948 102.022232 
L 460.789727 102.01762 
L 466.854263 102.175331 
L 473.45973 102.744409 
L 484.253531 104.552666 
L 485.407766 104.808696 
L 493.110919 106.811931 
L 495.661325 107.583542 
L 498.81094 108.606645 
L 500.227415 109.091151 
L 504.53359 110.652339 
L 505.258135 110.927542 
L 505.481734 111.013174 
L 509.378266 112.556667 
L 513.487423 114.282385 
L 515.925953 115.349534 
L 516.420644 115.569643 
L 517.485084 116.047205 
L 520.844895 117.587768 
L 528.783314 121.393476 
L 532.181281 123.075346 
L 534.115924 124.042505 
L 544.493318 129.279499 
L 553.850476 133.931724 
L 553.905156 133.958355 
L 554.55517 134.274278 
L 561.50757 137.563636 
L 563.823738 138.615778 
L 566.016078 139.587759 
L 568.208419 140.534388 
L 570.400759 141.453647 
L 572.593099 142.343569 
L 574.78544 143.202235 
L 576.97778 144.027783 
L 579.17012 144.81841 
L 581.362461 145.572377 
L 583.554801 146.28801 
" clip-path="url(#pf5a20e7974)" style="fill: none; stroke: #000000; stroke-width: 1.5; stroke-linecap: square"/>
   </g>
   <g id="line2d_30">
    <path d="M 76.282074 111.215185 
L 81.094231 111.846858 
L 82.010371 111.483213 
L 82.159155 111.565071 
L 88.47147 112.694226 
L 89.198666 112.013696 
L 93.854966 112.360535 
L 97.840688 113.072194 
L 98.294916 113.603273 
L 105.42369 114.016242 
L 107.248596 114.316111 
L 123.933004 116.515575 
L 134.667123 117.905709 
L 150.485142 119.202506 
L 153.11187 119.624795 
L 154.927037 119.828567 
L 158.847007 119.710739 
L 169.617537 120.249927 
L 173.284321 121.925497 
L 178.806977 121.773226 
L 179.977239 121.554593 
L 181.912393 122.634808 
L 199.16233 124.320728 
L 201.169747 124.184241 
L 210.476306 125.132788 
L 211.037575 125.196736 
L 219.698609 125.877387 
L 222.243461 125.97854 
L 227.497754 126.420902 
L 229.472717 126.221663 
L 233.013785 128.069795 
L 234.60583 127.44165 
L 234.923335 127.484904 
L 240.071724 127.658337 
L 241.660698 127.509 
L 245.2193 127.379836 
L 248.165687 127.869523 
L 259.158614 129.542083 
L 259.504647 129.133856 
L 261.891255 128.736708 
L 265.46761 128.909696 
L 266.494683 129.200807 
L 271.78332 129.14609 
L 274.510645 130.075184 
L 279.61882 129.45618 
L 279.722822 129.446608 
L 281.545276 130.228323 
L 282.559027 129.482767 
L 283.428585 130.320662 
L 283.620661 130.750937 
L 284.332512 129.794746 
L 293.106891 129.547723 
L 295.045626 129.307492 
L 302.932262 129.309068 
L 305.717729 130.057591 
L 306.408184 130.124861 
L 332.649077 129.044458 
L 333.803556 130.184603 
L 336.186778 128.989121 
L 338.815463 128.532906 
L 347.471885 127.90595 
L 347.972216 128.248855 
L 348.246112 127.807841 
L 354.844749 127.682203 
L 359.280715 126.37218 
L 359.477506 127.436907 
L 374.681018 125.4644 
L 381.940248 124.294318 
L 384.413734 122.58633 
L 386.486911 123.691389 
L 406.681135 120.405568 
L 406.970084 120.365566 
L 408.230321 119.743921 
L 417.744715 117.962601 
L 421.066491 118.25119 
L 424.321687 117.468769 
L 430.635129 116.296016 
L 432.913318 115.115805 
L 433.324651 116.058123 
L 438.880923 114.500254 
L 441.119639 114.112288 
L 443.254319 113.619688 
L 453.782794 112.859354 
L 460.046948 112.129871 
L 460.789727 111.810907 
L 466.854263 110.660162 
L 473.45973 110.033425 
L 484.253531 108.807171 
L 485.407766 110.186178 
L 493.110919 110.608368 
L 495.661325 110.107114 
L 498.81094 110.785238 
L 500.227415 110.762197 
L 504.53359 111.311777 
L 505.258135 111.427594 
L 505.481734 111.236499 
L 509.378266 112.837884 
L 513.487423 112.3508 
L 515.925953 114.173377 
L 516.420644 114.147536 
L 517.485084 114.609935 
L 520.844895 115.108394 
L 528.783314 118.707971 
L 532.181281 121.894893 
L 534.115924 122.816011 
L 544.493318 130.447922 
L 553.850476 139.998284 
L 553.905156 140.130783 
L 554.55517 141.004246 
L 561.50757 149.876929 
L 563.823738 153.055298 
L 566.016078 156.251196 
L 568.208419 159.613818 
L 570.400759 163.057324 
L 572.593099 167.68389 
L 574.78544 171.139181 
L 576.97778 176.72221 
L 579.17012 180.357868 
L 581.362461 185.181615 
L 583.554801 190.590892 
" clip-path="url(#pf5a20e7974)" style="fill: none; stroke: #ff0000; stroke-width: 1.5; stroke-linecap: square"/>
   </g>
   <g id="line2d_31">
    <path d="M 76.282074 124.316476 
L 81.094231 121.883661 
L 82.010371 121.443083 
L 82.159155 121.372212 
L 88.47147 118.540096 
L 89.198666 118.235675 
L 93.854966 116.392709 
L 97.840688 114.960226 
L 98.294916 114.805409 
L 105.42369 112.599309 
L 107.248596 112.10151 
L 123.933004 108.774673 
L 134.667123 107.746408 
L 150.485142 107.676252 
L 153.11187 107.818234 
L 154.927037 107.940254 
L 158.847007 108.268381 
L 169.617537 109.594982 
L 173.284321 110.17726 
L 178.806977 111.166835 
L 179.977239 111.392851 
L 181.912393 111.77843 
L 199.16233 115.774748 
L 201.169747 116.293559 
L 210.476306 118.801375 
L 211.037575 118.957032 
L 219.698609 121.400354 
L 222.243461 122.127934 
L 227.497754 123.633773 
L 229.472717 124.198919 
L 233.013785 125.20784 
L 234.60583 125.658738 
L 234.923335 125.74841 
L 240.071724 127.187853 
L 241.660698 127.625431 
L 245.2193 128.591188 
L 248.165687 129.373652 
L 259.158614 132.117701 
L 259.504647 132.19881 
L 261.891255 132.748256 
L 265.46761 133.53727 
L 266.494683 133.755825 
L 271.78332 134.820338 
L 274.510645 135.327083 
L 279.61882 136.19288 
L 279.722822 136.209332 
L 281.545276 136.489753 
L 282.559027 136.639205 
L 283.428585 136.763618 
L 283.620661 136.790624 
L 284.332512 136.889202 
L 293.106891 137.901558 
L 295.045626 138.072623 
L 302.932262 138.561368 
L 305.717729 138.652179 
L 306.408184 138.667936 
L 332.649077 137.21831 
L 333.803556 137.062355 
L 336.186778 136.716301 
L 338.815463 136.297297 
L 347.471885 134.648637 
L 347.972216 134.541121 
L 348.246112 134.481714 
L 354.844749 132.936181 
L 359.280715 131.779744 
L 359.477506 131.726375 
L 374.681018 127.138529 
L 381.940248 124.686126 
L 384.413734 123.823239 
L 386.486911 123.091701 
L 406.681135 115.835695 
L 406.970084 115.733586 
L 408.230321 115.289959 
L 417.744715 112.063718 
L 421.066491 111.006147 
L 424.321687 110.014608 
L 430.635129 108.241526 
L 432.913318 107.657305 
L 433.324651 107.555263 
L 438.880923 106.288107 
L 441.119639 105.840261 
L 443.254319 105.449434 
L 453.782794 104.092878 
L 460.046948 103.786206 
L 460.789727 103.776663 
L 466.854263 103.921677 
L 473.45973 104.548275 
L 484.253531 106.662962 
L 485.407766 106.969622 
L 493.110919 109.404383 
L 495.661325 110.354255 
L 498.81094 111.620285 
L 500.227415 112.221719 
L 504.53359 114.164046 
L 505.258135 114.506691 
L 505.481734 114.613301 
L 509.378266 116.532719 
L 513.487423 118.666947 
L 515.925953 119.975685 
L 516.420644 120.244245 
L 517.485084 120.825073 
L 520.844895 122.678466 
L 528.783314 127.068187 
L 532.181281 128.886859 
L 534.115924 129.888173 
L 544.493318 134.518859 
L 553.850476 136.86405 
L 553.905156 136.870411 
L 554.55517 136.938339 
L 561.50757 136.664457 
L 563.823738 136.103783 
L 566.016078 135.320873 
L 568.208419 134.270489 
L 570.400759 132.929721 
L 572.593099 131.274506 
L 574.78544 129.279586 
L 576.97778 126.918471 
L 579.17012 124.163394 
L 581.362461 120.985269 
L 583.554801 117.353646 
" clip-path="url(#pf5a20e7974)" style="fill: none; stroke: #000080; stroke-width: 1.5; stroke-linecap: square"/>
   </g>
   <g id="patch_3">
    <path d="M 50.918438 356.78175 
L 50.918438 24.14175 
" style="fill: none; stroke: #ffffff; stroke-linejoin: miter; stroke-linecap: square"/>
   </g>
   <g id="patch_4">
    <path d="M 608.918437 356.78175 
L 608.918437 24.14175 
" style="fill: none; stroke: #ffffff; stroke-linejoin: miter; stroke-linecap: square"/>
   </g>
   <g id="patch_5">
    <path d="M 50.918438 356.78175 
L 608.918437 356.78175 
" style="fill: none; stroke: #ffffff; stroke-linejoin: miter; stroke-linecap: square"/>
   </g>
   <g id="patch_6">
    <path d="M 50.918438 24.14175 
L 608.918437 24.14175 
" style="fill: none; stroke: #ffffff; stroke-linejoin: miter; stroke-linecap: square"/>
   </g>
   <g id="text_17">
    <!-- Polynomial Fit of a Non-linear Feature -->
    <g transform="translate(195.020813 18.14175)scale(0.144 -0.144)">
     <defs>
      <path id="DejaVuSans-50" d="M 1259 4147 
L 1259 2394 
L 2053 2394 
Q 2494 2394 2734 2622 
Q 2975 2850 2975 3272 
Q 2975 3691 2734 3919 
Q 2494 4147 2053 4147 
L 1259 4147 
z
M 628 4666 
L 2053 4666 
Q 2838 4666 3239 4311 
Q 3641 3956 3641 3272 
Q 3641 2581 3239 2228 
Q 2838 1875 2053 1875 
L 1259 1875 
L 1259 0 
L 628 0 
L 628 4666 
z
" transform="scale(0.015625)"/>
      <path id="DejaVuSans-6f" d="M 1959 3097 
Q 1497 3097 1228 2736 
Q 959 2375 959 1747 
Q 959 1119 1226 758 
Q 1494 397 1959 397 
Q 2419 397 2687 759 
Q 2956 1122 2956 1747 
Q 2956 2369 2687 2733 
Q 2419 3097 1959 3097 
z
M 1959 3584 
Q 2709 3584 3137 3096 
Q 3566 2609 3566 1747 
Q 3566 888 3137 398 
Q 2709 -91 1959 -91 
Q 1206 -91 779 398 
Q 353 888 353 1747 
Q 353 2609 779 3096 
Q 1206 3584 1959 3584 
z
" transform="scale(0.015625)"/>
      <path id="DejaVuSans-6c" d="M 603 4863 
L 1178 4863 
L 1178 0 
L 603 0 
L 603 4863 
z
" transform="scale(0.015625)"/>
      <path id="DejaVuSans-79" d="M 2059 -325 
Q 1816 -950 1584 -1140 
Q 1353 -1331 966 -1331 
L 506 -1331 
L 506 -850 
L 844 -850 
Q 1081 -850 1212 -737 
Q 1344 -625 1503 -206 
L 1606 56 
L 191 3500 
L 800 3500 
L 1894 763 
L 2988 3500 
L 3597 3500 
L 2059 -325 
z
" transform="scale(0.015625)"/>
      <path id="DejaVuSans-6d" d="M 3328 2828 
Q 3544 3216 3844 3400 
Q 4144 3584 4550 3584 
Q 5097 3584 5394 3201 
Q 5691 2819 5691 2113 
L 5691 0 
L 5113 0 
L 5113 2094 
Q 5113 2597 4934 2840 
Q 4756 3084 4391 3084 
Q 3944 3084 3684 2787 
Q 3425 2491 3425 1978 
L 3425 0 
L 2847 0 
L 2847 2094 
Q 2847 2600 2669 2842 
Q 2491 3084 2119 3084 
Q 1678 3084 1418 2786 
Q 1159 2488 1159 1978 
L 1159 0 
L 581 0 
L 581 3500 
L 1159 3500 
L 1159 2956 
Q 1356 3278 1631 3431 
Q 1906 3584 2284 3584 
Q 2666 3584 2933 3390 
Q 3200 3197 3328 2828 
z
" transform="scale(0.015625)"/>
      <path id="DejaVuSans-69" d="M 603 3500 
L 1178 3500 
L 1178 0 
L 603 0 
L 603 3500 
z
M 603 4863 
L 1178 4863 
L 1178 4134 
L 603 4134 
L 603 4863 
z
" transform="scale(0.015625)"/>
      <path id="DejaVuSans-66" d="M 2375 4863 
L 2375 4384 
L 1825 4384 
Q 1516 4384 1395 4259 
Q 1275 4134 1275 3809 
L 1275 3500 
L 2222 3500 
L 2222 3053 
L 1275 3053 
L 1275 0 
L 697 0 
L 697 3053 
L 147 3053 
L 147 3500 
L 697 3500 
L 697 3744 
Q 697 4328 969 4595 
Q 1241 4863 1831 4863 
L 2375 4863 
z
" transform="scale(0.015625)"/>
      <path id="DejaVuSans-4e" d="M 628 4666 
L 1478 4666 
L 3547 763 
L 3547 4666 
L 4159 4666 
L 4159 0 
L 3309 0 
L 1241 3903 
L 1241 0 
L 628 0 
L 628 4666 
z
" transform="scale(0.015625)"/>
      <path id="DejaVuSans-2d" d="M 313 2009 
L 1997 2009 
L 1997 1497 
L 313 1497 
L 313 2009 
z
" transform="scale(0.015625)"/>
     </defs>
     <use xlink:href="#DejaVuSans-50"/>
     <use xlink:href="#DejaVuSans-6f" x="56.677734"/>
     <use xlink:href="#DejaVuSans-6c" x="117.859375"/>
     <use xlink:href="#DejaVuSans-79" x="145.642578"/>
     <use xlink:href="#DejaVuSans-6e" x="204.822266"/>
     <use xlink:href="#DejaVuSans-6f" x="268.201172"/>
     <use xlink:href="#DejaVuSans-6d" x="329.382812"/>
     <use xlink:href="#DejaVuSans-69" x="426.794922"/>
     <use xlink:href="#DejaVuSans-61" x="454.578125"/>
     <use xlink:href="#DejaVuSans-6c" x="515.857422"/>
     <use xlink:href="#DejaVuSans-20" x="543.640625"/>
     <use xlink:href="#DejaVuSans-46" x="575.427734"/>
     <use xlink:href="#DejaVuSans-69" x="625.697266"/>
     <use xlink:href="#DejaVuSans-74" x="653.480469"/>
     <use xlink:href="#DejaVuSans-20" x="692.689453"/>
     <use xlink:href="#DejaVuSans-6f" x="724.476562"/>
     <use xlink:href="#DejaVuSans-66" x="785.658203"/>
     <use xlink:href="#DejaVuSans-20" x="820.863281"/>
     <use xlink:href="#DejaVuSans-61" x="852.650391"/>
     <use xlink:href="#DejaVuSans-20" x="913.929688"/>
     <use xlink:href="#DejaVuSans-4e" x="945.716797"/>
     <use xlink:href="#DejaVuSans-6f" x="1020.521484"/>
     <use xlink:href="#DejaVuSans-6e" x="1081.703125"/>
     <use xlink:href="#DejaVuSans-2d" x="1145.082031"/>
     <use xlink:href="#DejaVuSans-6c" x="1181.166016"/>
     <use xlink:href="#DejaVuSans-69" x="1208.949219"/>
     <use xlink:href="#DejaVuSans-6e" x="1236.732422"/>
     <use xlink:href="#DejaVuSans-65" x="1300.111328"/>
     <use xlink:href="#DejaVuSans-61" x="1361.634766"/>
     <use xlink:href="#DejaVuSans-72" x="1422.914062"/>
     <use xlink:href="#DejaVuSans-20" x="1464.027344"/>
     <use xlink:href="#DejaVuSans-46" x="1495.814453"/>
     <use xlink:href="#DejaVuSans-65" x="1547.833984"/>
     <use xlink:href="#DejaVuSans-61" x="1609.357422"/>
     <use xlink:href="#DejaVuSans-74" x="1670.636719"/>
     <use xlink:href="#DejaVuSans-75" x="1709.845703"/>
     <use xlink:href="#DejaVuSans-72" x="1773.224609"/>
     <use xlink:href="#DejaVuSans-65" x="1812.087891"/>
    </g>
   </g>
   <g id="legend_1">
    <g id="patch_7">
     <path d="M 57.918438 351.78175 
L 295.716875 351.78175 
Q 297.716875 351.78175 297.716875 349.78175 
L 297.716875 306.46925 
Q 297.716875 304.46925 295.716875 304.46925 
L 57.918438 304.46925 
Q 55.918438 304.46925 55.918438 306.46925 
L 55.918438 349.78175 
Q 55.918438 351.78175 57.918438 351.78175 
z
" style="fill: #e5e5e5; opacity: 0.8; stroke: #cccccc; stroke-width: 0.5; stroke-linejoin: miter"/>
    </g>
    <g id="line2d_32">
     <path d="M 59.918438 312.567687 
L 69.918438 312.567687 
L 79.918438 312.567687 
" style="fill: none; stroke: #000000; stroke-width: 1.5; stroke-linecap: square"/>
    </g>
    <g id="text_18">
     <!-- Ground Truth -->
     <g transform="translate(87.918438 316.067687)scale(0.1 -0.1)">
      <defs>
       <path id="DejaVuSans-47" d="M 3809 666 
L 3809 1919 
L 2778 1919 
L 2778 2438 
L 4434 2438 
L 4434 434 
Q 4069 175 3628 42 
Q 3188 -91 2688 -91 
Q 1594 -91 976 548 
Q 359 1188 359 2328 
Q 359 3472 976 4111 
Q 1594 4750 2688 4750 
Q 3144 4750 3555 4637 
Q 3966 4525 4313 4306 
L 4313 3634 
Q 3963 3931 3569 4081 
Q 3175 4231 2741 4231 
Q 1884 4231 1454 3753 
Q 1025 3275 1025 2328 
Q 1025 1384 1454 906 
Q 1884 428 2741 428 
Q 3075 428 3337 486 
Q 3600 544 3809 666 
z
" transform="scale(0.015625)"/>
       <path id="DejaVuSans-64" d="M 2906 2969 
L 2906 4863 
L 3481 4863 
L 3481 0 
L 2906 0 
L 2906 525 
Q 2725 213 2448 61 
Q 2172 -91 1784 -91 
Q 1150 -91 751 415 
Q 353 922 353 1747 
Q 353 2572 751 3078 
Q 1150 3584 1784 3584 
Q 2172 3584 2448 3432 
Q 2725 3281 2906 2969 
z
M 947 1747 
Q 947 1113 1208 752 
Q 1469 391 1925 391 
Q 2381 391 2643 752 
Q 2906 1113 2906 1747 
Q 2906 2381 2643 2742 
Q 2381 3103 1925 3103 
Q 1469 3103 1208 2742 
Q 947 2381 947 1747 
z
" transform="scale(0.015625)"/>
       <path id="DejaVuSans-68" d="M 3513 2113 
L 3513 0 
L 2938 0 
L 2938 2094 
Q 2938 2591 2744 2837 
Q 2550 3084 2163 3084 
Q 1697 3084 1428 2787 
Q 1159 2491 1159 1978 
L 1159 0 
L 581 0 
L 581 4863 
L 1159 4863 
L 1159 2956 
Q 1366 3272 1645 3428 
Q 1925 3584 2291 3584 
Q 2894 3584 3203 3211 
Q 3513 2838 3513 2113 
z
" transform="scale(0.015625)"/>
      </defs>
      <use xlink:href="#DejaVuSans-47"/>
      <use xlink:href="#DejaVuSans-72" x="77.490234"/>
      <use xlink:href="#DejaVuSans-6f" x="116.353516"/>
      <use xlink:href="#DejaVuSans-75" x="177.535156"/>
      <use xlink:href="#DejaVuSans-6e" x="240.914062"/>
      <use xlink:href="#DejaVuSans-64" x="304.292969"/>
      <use xlink:href="#DejaVuSans-20" x="367.769531"/>
      <use xlink:href="#DejaVuSans-54" x="399.556641"/>
      <use xlink:href="#DejaVuSans-72" x="445.890625"/>
      <use xlink:href="#DejaVuSans-75" x="487.003906"/>
      <use xlink:href="#DejaVuSans-74" x="550.382812"/>
      <use xlink:href="#DejaVuSans-68" x="589.591797"/>
     </g>
    </g>
    <g id="line2d_33">
     <path d="M 59.918438 327.245812 
L 69.918438 327.245812 
L 79.918438 327.245812 
" style="fill: none; stroke: #ff0000; stroke-width: 1.5; stroke-linecap: square"/>
    </g>
    <g id="text_19">
     <!-- scikit_stan GLM with Polynomial Features -->
     <g transform="translate(87.918438 330.745812)scale(0.1 -0.1)">
      <defs>
       <path id="DejaVuSans-73" d="M 2834 3397 
L 2834 2853 
Q 2591 2978 2328 3040 
Q 2066 3103 1784 3103 
Q 1356 3103 1142 2972 
Q 928 2841 928 2578 
Q 928 2378 1081 2264 
Q 1234 2150 1697 2047 
L 1894 2003 
Q 2506 1872 2764 1633 
Q 3022 1394 3022 966 
Q 3022 478 2636 193 
Q 2250 -91 1575 -91 
Q 1294 -91 989 -36 
Q 684 19 347 128 
L 347 722 
Q 666 556 975 473 
Q 1284 391 1588 391 
Q 1994 391 2212 530 
Q 2431 669 2431 922 
Q 2431 1156 2273 1281 
Q 2116 1406 1581 1522 
L 1381 1569 
Q 847 1681 609 1914 
Q 372 2147 372 2553 
Q 372 3047 722 3315 
Q 1072 3584 1716 3584 
Q 2034 3584 2315 3537 
Q 2597 3491 2834 3397 
z
" transform="scale(0.015625)"/>
       <path id="DejaVuSans-63" d="M 3122 3366 
L 3122 2828 
Q 2878 2963 2633 3030 
Q 2388 3097 2138 3097 
Q 1578 3097 1268 2742 
Q 959 2388 959 1747 
Q 959 1106 1268 751 
Q 1578 397 2138 397 
Q 2388 397 2633 464 
Q 2878 531 3122 666 
L 3122 134 
Q 2881 22 2623 -34 
Q 2366 -91 2075 -91 
Q 1284 -91 818 406 
Q 353 903 353 1747 
Q 353 2603 823 3093 
Q 1294 3584 2113 3584 
Q 2378 3584 2631 3529 
Q 2884 3475 3122 3366 
z
" transform="scale(0.015625)"/>
       <path id="DejaVuSans-6b" d="M 581 4863 
L 1159 4863 
L 1159 1991 
L 2875 3500 
L 3609 3500 
L 1753 1863 
L 3688 0 
L 2938 0 
L 1159 1709 
L 1159 0 
L 581 0 
L 581 4863 
z
" transform="scale(0.015625)"/>
       <path id="DejaVuSans-5f" d="M 3263 -1063 
L 3263 -1509 
L -63 -1509 
L -63 -1063 
L 3263 -1063 
z
" transform="scale(0.015625)"/>
       <path id="DejaVuSans-4c" d="M 628 4666 
L 1259 4666 
L 1259 531 
L 3531 531 
L 3531 0 
L 628 0 
L 628 4666 
z
" transform="scale(0.015625)"/>
       <path id="DejaVuSans-4d" d="M 628 4666 
L 1569 4666 
L 2759 1491 
L 3956 4666 
L 4897 4666 
L 4897 0 
L 4281 0 
L 4281 4097 
L 3078 897 
L 2444 897 
L 1241 4097 
L 1241 0 
L 628 0 
L 628 4666 
z
" transform="scale(0.015625)"/>
       <path id="DejaVuSans-77" d="M 269 3500 
L 844 3500 
L 1563 769 
L 2278 3500 
L 2956 3500 
L 3675 769 
L 4391 3500 
L 4966 3500 
L 4050 0 
L 3372 0 
L 2619 2869 
L 1863 0 
L 1184 0 
L 269 3500 
z
" transform="scale(0.015625)"/>
      </defs>
      <use xlink:href="#DejaVuSans-73"/>
      <use xlink:href="#DejaVuSans-63" x="52.099609"/>
      <use xlink:href="#DejaVuSans-69" x="107.080078"/>
      <use xlink:href="#DejaVuSans-6b" x="134.863281"/>
      <use xlink:href="#DejaVuSans-69" x="192.773438"/>
      <use xlink:href="#DejaVuSans-74" x="220.556641"/>
      <use xlink:href="#DejaVuSans-5f" x="259.765625"/>
      <use xlink:href="#DejaVuSans-73" x="309.765625"/>
      <use xlink:href="#DejaVuSans-74" x="361.865234"/>
      <use xlink:href="#DejaVuSans-61" x="401.074219"/>
      <use xlink:href="#DejaVuSans-6e" x="462.353516"/>
      <use xlink:href="#DejaVuSans-20" x="525.732422"/>
      <use xlink:href="#DejaVuSans-47" x="557.519531"/>
      <use xlink:href="#DejaVuSans-4c" x="635.009766"/>
      <use xlink:href="#DejaVuSans-4d" x="690.722656"/>
      <use xlink:href="#DejaVuSans-20" x="777.001953"/>
      <use xlink:href="#DejaVuSans-77" x="808.789062"/>
      <use xlink:href="#DejaVuSans-69" x="890.576172"/>
      <use xlink:href="#DejaVuSans-74" x="918.359375"/>
      <use xlink:href="#DejaVuSans-68" x="957.568359"/>
      <use xlink:href="#DejaVuSans-20" x="1020.947266"/>
      <use xlink:href="#DejaVuSans-50" x="1052.734375"/>
      <use xlink:href="#DejaVuSans-6f" x="1109.412109"/>
      <use xlink:href="#DejaVuSans-6c" x="1170.59375"/>
      <use xlink:href="#DejaVuSans-79" x="1198.376953"/>
      <use xlink:href="#DejaVuSans-6e" x="1257.556641"/>
      <use xlink:href="#DejaVuSans-6f" x="1320.935547"/>
      <use xlink:href="#DejaVuSans-6d" x="1382.117188"/>
      <use xlink:href="#DejaVuSans-69" x="1479.529297"/>
      <use xlink:href="#DejaVuSans-61" x="1507.3125"/>
      <use xlink:href="#DejaVuSans-6c" x="1568.591797"/>
      <use xlink:href="#DejaVuSans-20" x="1596.375"/>
      <use xlink:href="#DejaVuSans-46" x="1628.162109"/>
      <use xlink:href="#DejaVuSans-65" x="1680.181641"/>
      <use xlink:href="#DejaVuSans-61" x="1741.705078"/>
      <use xlink:href="#DejaVuSans-74" x="1802.984375"/>
      <use xlink:href="#DejaVuSans-75" x="1842.193359"/>
      <use xlink:href="#DejaVuSans-72" x="1905.572266"/>
      <use xlink:href="#DejaVuSans-65" x="1944.435547"/>
      <use xlink:href="#DejaVuSans-73" x="2005.958984"/>
     </g>
    </g>
    <g id="line2d_34">
     <path d="M 59.918438 342.202062 
L 69.918438 342.202062 
L 79.918438 342.202062 
" style="fill: none; stroke: #000080; stroke-width: 1.5; stroke-linecap: square"/>
    </g>
    <g id="text_20">
     <!-- ARD with Polynomial Features -->
     <g transform="translate(87.918438 345.702062)scale(0.1 -0.1)">
      <defs>
       <path id="DejaVuSans-41" d="M 2188 4044 
L 1331 1722 
L 3047 1722 
L 2188 4044 
z
M 1831 4666 
L 2547 4666 
L 4325 0 
L 3669 0 
L 3244 1197 
L 1141 1197 
L 716 0 
L 50 0 
L 1831 4666 
z
" transform="scale(0.015625)"/>
       <path id="DejaVuSans-52" d="M 2841 2188 
Q 3044 2119 3236 1894 
Q 3428 1669 3622 1275 
L 4263 0 
L 3584 0 
L 2988 1197 
Q 2756 1666 2539 1819 
Q 2322 1972 1947 1972 
L 1259 1972 
L 1259 0 
L 628 0 
L 628 4666 
L 2053 4666 
Q 2853 4666 3247 4331 
Q 3641 3997 3641 3322 
Q 3641 2881 3436 2590 
Q 3231 2300 2841 2188 
z
M 1259 4147 
L 1259 2491 
L 2053 2491 
Q 2509 2491 2742 2702 
Q 2975 2913 2975 3322 
Q 2975 3731 2742 3939 
Q 2509 4147 2053 4147 
L 1259 4147 
z
" transform="scale(0.015625)"/>
       <path id="DejaVuSans-44" d="M 1259 4147 
L 1259 519 
L 2022 519 
Q 2988 519 3436 956 
Q 3884 1394 3884 2338 
Q 3884 3275 3436 3711 
Q 2988 4147 2022 4147 
L 1259 4147 
z
M 628 4666 
L 1925 4666 
Q 3281 4666 3915 4102 
Q 4550 3538 4550 2338 
Q 4550 1131 3912 565 
Q 3275 0 1925 0 
L 628 0 
L 628 4666 
z
" transform="scale(0.015625)"/>
      </defs>
      <use xlink:href="#DejaVuSans-41"/>
      <use xlink:href="#DejaVuSans-52" x="68.408203"/>
      <use xlink:href="#DejaVuSans-44" x="137.890625"/>
      <use xlink:href="#DejaVuSans-20" x="214.892578"/>
      <use xlink:href="#DejaVuSans-77" x="246.679688"/>
      <use xlink:href="#DejaVuSans-69" x="328.466797"/>
      <use xlink:href="#DejaVuSans-74" x="356.25"/>
      <use xlink:href="#DejaVuSans-68" x="395.458984"/>
      <use xlink:href="#DejaVuSans-20" x="458.837891"/>
      <use xlink:href="#DejaVuSans-50" x="490.625"/>
      <use xlink:href="#DejaVuSans-6f" x="547.302734"/>
      <use xlink:href="#DejaVuSans-6c" x="608.484375"/>
      <use xlink:href="#DejaVuSans-79" x="636.267578"/>
      <use xlink:href="#DejaVuSans-6e" x="695.447266"/>
      <use xlink:href="#DejaVuSans-6f" x="758.826172"/>
      <use xlink:href="#DejaVuSans-6d" x="820.007812"/>
      <use xlink:href="#DejaVuSans-69" x="917.419922"/>
      <use xlink:href="#DejaVuSans-61" x="945.203125"/>
      <use xlink:href="#DejaVuSans-6c" x="1006.482422"/>
      <use xlink:href="#DejaVuSans-20" x="1034.265625"/>
      <use xlink:href="#DejaVuSans-46" x="1066.052734"/>
      <use xlink:href="#DejaVuSans-65" x="1118.072266"/>
      <use xlink:href="#DejaVuSans-61" x="1179.595703"/>
      <use xlink:href="#DejaVuSans-74" x="1240.875"/>
      <use xlink:href="#DejaVuSans-75" x="1280.083984"/>
      <use xlink:href="#DejaVuSans-72" x="1343.462891"/>
      <use xlink:href="#DejaVuSans-65" x="1382.326172"/>
      <use xlink:href="#DejaVuSans-73" x="1443.849609"/>
     </g>
    </g>
   </g>
  </g>
 </g>
 <defs>
  <clipPath id="pf5a20e7974">
   <rect x="50.918438" y="24.14175" width="558" height="332.64"/>
  </clipPath>
 </defs>
</svg>
